<?xml version="1.0" encoding="utf-8"?>
<!-- Generator: Adobe Illustrator 18.1.1, SVG Export Plug-In . SVG Version: 6.00 Build 0)  -->
<svg version="1.1" xmlns="http://www.w3.org/2000/svg" xmlns:xlink="http://www.w3.org/1999/xlink" x="0px" y="0px"
	 viewBox="0 0 512 512" style="enable-background:new 0 0 512 512;" xml:space="preserve">
<style type="text/css">
	.st0{fill:#6D6E71;}
	.st1{fill:#58595B;}
	.st2{fill:#68B2E3;}
	.st3{fill:#414042;}
	.st4{fill:#76B9B0;}
	.st5{fill:#F69580;}
	.st6{fill:#FFDA7D;}
</style>
<g id="pc">
</g>
<g id="søk">
</g>
<g id="projektor">
</g>
<g id="tavle">
</g>
<g id="loggInn">
</g>
<g id="loggUt">
</g>
<g id="pcSirkel">
</g>
<g id="søkSirkel">
</g>
<g id="projektorSirkel">
</g>
<g id="tavleSirkel">
</g>
<g id="loggInnSirkel">
</g>
<g id="Layer_13">
</g>
<g id="pcHexa">
</g>
<g id="søkHexa">
</g>
<g id="projektorHexa">
</g>
<g id="tavleHexa">
</g>
<g id="loggInnHexa">
</g>
<g id="loggUtHexa">
	<g>
		<g id="XMLID_17_">
			<g>
				<path class="st5" d="M477.4,128v256L256,512L34.7,384V128L256,0L477.4,128z M443.8,311.9V200c0-16.2-13.1-29.4-29.3-29.4H171.1
					H98.2c-16.2,0-29.4,13.2-29.4,29.4v111.9c0,16.2,13.1,29.4,29.4,29.4h243.3h72.9C430.6,341.3,443.8,328.2,443.8,311.9z"/>
				<path class="st5" d="M409.7,256c0,36.6-30.5,66.4-68.2,66.4c-7.9,0-15.6-1.3-22.7-3.8c-19.9-6.9-35.6-22.6-42.1-42.2
					c-2.2-6.4-3.3-13.3-3.3-20.4c0-36.6,30.6-66.4,68.2-66.4C379.1,189.6,409.7,219.4,409.7,256z M341.5,307.2
					c29.1,0,52.6-22.9,52.6-51.2c0-28.3-23.5-51.2-52.6-51.2c-29,0-52.6,22.9-52.6,51.2C288.9,284.3,312.5,307.2,341.5,307.2z"/>
				<path d="M394.1,256c0,28.3-23.5,51.2-52.6,51.2c-29,0-52.6-22.9-52.6-51.2c0-28.3,23.6-51.2,52.6-51.2
					C370.6,204.8,394.1,227.7,394.1,256z"/>
				<path class="st3" d="M318.8,318.6l22.7,22.8H98.2c-16.2,0-29.4-13.2-29.4-29.4V200c0-16.2,13.1-29.4,29.4-29.4h72.9l34.1,34.1
					h-93.7c-2.4,0-4.5,0.9-6,2.5c-1.5,1.6-2.5,3.7-2.5,6c0,4.7,3.8,8.5,8.5,8.5h110.8l54.4,54.5C283.2,296,298.9,311.7,318.8,318.6z
					 M236.8,253.5c1.6-1.6,2.5-3.7,2.5-6c0-4.7-3.8-8.5-8.5-8.5H111.5c-2.4,0-4.5,0.9-6,2.5c-1.5,1.6-2.5,3.7-2.5,6
					c0,4.7,3.8,8.5,8.5,8.5h119.3C233.1,256,235.2,255,236.8,253.5z M236.8,287.6c1.6-1.5,2.5-3.7,2.5-6c0-4.7-3.8-8.5-8.5-8.5
					H111.5c-2.4,0-4.5,1-6,2.5c-1.5,1.6-2.5,3.7-2.5,6c0,4.7,3.8,8.5,8.5,8.5h119.3C233.1,290.1,235.2,289.2,236.8,287.6z"/>
				<path d="M273.4,256c0,7.1,1.1,14,3.3,20.4l-54.4-54.5h8.5c2.4,0,4.5-1,6-2.5c1.6-1.6,2.5-3.7,2.5-6c0-4.7-3.8-8.5-8.5-8.5h-25.6
					l-34.1-34.1h243.3c16.2,0,29.3,13.2,29.3,29.4v111.9c0,16.2-13.1,29.4-29.3,29.4h-72.9l-22.7-22.8c7.1,2.5,14.8,3.8,22.7,3.8
					c37.6,0,68.2-29.8,68.2-66.4c0-36.6-30.5-66.4-68.2-66.4C303.9,189.6,273.4,219.4,273.4,256z"/>
				<path class="st5" d="M239.3,213.3c0,2.3-0.9,4.5-2.5,6c-1.6,1.5-3.7,2.5-6,2.5h-8.5H111.5c-4.7,0-8.5-3.8-8.5-8.5
					c0-2.4,1-4.5,2.5-6c1.6-1.6,3.7-2.5,6-2.5h93.7h25.6C235.5,204.8,239.3,208.6,239.3,213.3z"/>
				<path class="st5" d="M239.3,247.4c0,2.4-0.9,4.5-2.5,6c-1.6,1.6-3.7,2.5-6,2.5H111.5c-4.7,0-8.5-3.8-8.5-8.5c0-2.3,1-4.5,2.5-6
					c1.6-1.6,3.7-2.5,6-2.5h119.3C235.5,238.9,239.3,242.8,239.3,247.4z"/>
				<path class="st5" d="M239.3,281.6c0,2.4-0.9,4.5-2.5,6c-1.6,1.6-3.7,2.5-6,2.5H111.5c-4.7,0-8.5-3.8-8.5-8.5c0-2.3,1-4.5,2.5-6
					c1.6-1.5,3.7-2.5,6-2.5h119.3C235.5,273,239.3,276.9,239.3,281.6z"/>
			</g>
		</g>
	</g>
</g>
</svg>
