<?xml version="1.0" encoding="utf-8"?>
<!-- Generator: Adobe Illustrator 18.1.1, SVG Export Plug-In . SVG Version: 6.00 Build 0)  -->
<svg version="1.1" xmlns="http://www.w3.org/2000/svg" xmlns:xlink="http://www.w3.org/1999/xlink" x="0px" y="0px"
	 viewBox="0 0 512 512" style="enable-background:new 0 0 512 512;" xml:space="preserve">
<style type="text/css">
	.st0{fill:#6D6E71;}
	.st1{fill:#58595B;}
	.st2{fill:#68B2E3;}
	.st3{fill:#414042;}
	.st4{fill:#76B9B0;}
	.st5{fill:#F69580;}
	.st6{fill:#FFDA7D;}
</style>
<g id="pc">
</g>
<g id="søk">
</g>
<g id="projektor">
</g>
<g id="tavle">
</g>
<g id="loggInn">
</g>
<g id="loggUt">
</g>
<g id="pcSirkel">
</g>
<g id="søkSirkel">
</g>
<g id="projektorSirkel">
</g>
<g id="tavleSirkel">
</g>
<g id="loggInnSirkel">
</g>
<g id="Layer_13">
</g>
<g id="pcHexa">
</g>
<g id="søkHexa">
</g>
<g id="projektorHexa">
</g>
<g id="tavleHexa">
</g>
<g id="loggInnHexa">
</g>
<g id="loggUtHexa">
	<g>
		<g id="XMLID_15_">
			<g>
				<path class="st6" d="M477.9,128v256L256,512L34.1,384V128L256,0L477.9,128z M409.7,357.4V154.5c0-9.9-8.1-18-18-18H136.4h-16.1
					c-9.9,0-18,8.1-18,18v202.9c0,9.9,8.1,18,18,18h255.3h16.1C401.6,375.5,409.7,367.4,409.7,357.4z"/>
				<path d="M409.7,154.5v202.9c0,9.9-8.1,18-18,18h-16.1l-7.6-7.6h23.7c5.8,0,10.4-4.7,10.4-10.4V154.5c0-5.8-4.7-10.4-10.4-10.4
					H144l-7.6-7.6h255.3C401.6,136.5,409.7,144.6,409.7,154.5z"/>
				<path class="st6" d="M402.1,154.5v202.9c0,5.8-4.7,10.4-10.4,10.4H368H120.3c-5.8,0-10.4-4.7-10.4-10.4V154.5
					c0-5.8,4.7-10.4,10.4-10.4H144h247.7C397.4,144.1,402.1,148.8,402.1,154.5z M388.8,346V165.9c0-4.7-3.9-8.6-8.6-8.6H157.3h-25.6
					c-4.7,0-8.5,3.8-8.5,8.5V346c0,4.7,3.9,8.6,8.6,8.6h222.9h25.6C385,354.6,388.8,350.7,388.8,346z"/>
				<path d="M388.8,165.9V346c0,4.7-3.9,8.6-8.6,8.6h-25.6L157.3,157.4h222.9C385,157.4,388.8,161.3,388.8,165.9z"/>
				<path class="st3" d="M375.5,375.5H120.3c-9.9,0-18-8.1-18-18V154.5c0-9.9,8.1-18,18-18h16.1l7.6,7.6h-23.7
					c-5.8,0-10.4,4.7-10.4,10.4v202.9c0,5.8,4.7,10.4,10.4,10.4H368L375.5,375.5z"/>
				<path class="st3" d="M354.7,354.6H131.7c-4.7,0-8.6-3.9-8.6-8.6V165.9c0-4.7,3.8-8.5,8.5-8.5h25.6L354.7,354.6z"/>
			</g>
		</g>
	</g>
</g>
</svg>
