<?xml version="1.0" encoding="utf-8"?>
<!-- Generator: Adobe Illustrator 18.1.1, SVG Export Plug-In . SVG Version: 6.00 Build 0)  -->
<svg version="1.1" xmlns="http://www.w3.org/2000/svg" xmlns:xlink="http://www.w3.org/1999/xlink" x="0px" y="0px"
	 viewBox="0 0 512 512" style="enable-background:new 0 0 512 512;" xml:space="preserve">
<style type="text/css">
	.st0{fill:#6D6E71;}
	.st1{fill:#58595B;}
	.st2{fill:#68B2E3;}
	.st3{fill:#414042;}
	.st4{fill:#76B9B0;}
	.st5{fill:#F69580;}
	.st6{fill:#FFDA7D;}
</style>
<g id="pc">
</g>
<g id="søk">
</g>
<g id="projektor">
</g>
<g id="tavle">
</g>
<g id="loggInn">
</g>
<g id="loggUt">
</g>
<g id="pcSirkel">
</g>
<g id="søkSirkel">
</g>
<g id="projektorSirkel">
</g>
<g id="tavleSirkel">
</g>
<g id="loggInnSirkel">
</g>
<g id="Layer_13">
</g>
<g id="pcHexa">
</g>
<g id="søkHexa">
</g>
<g id="projektorHexa">
</g>
<g id="tavleHexa">
</g>
<g id="loggInnHexa">
</g>
<g id="loggUtHexa">
	<g id="XMLID_2_">
		<g>
			<polygon class="st0" points="315.1,433.2 196.9,433.2 221.2,417.5 236.3,363.7 275.7,363.7 290.8,417.2 			"/>
			<path class="st0" d="M78.8,351.6V121c0-1.6,1.3-2.9,2.9-2.9h36.5l8.8,8.8H90.5c-1.7,0-3,1.4-3,3v182.1c0,1.7,1.4,3,3,3h224.5
				l39.4,39.4H81.7C80,354.5,78.8,353.2,78.8,351.6z"/>
			<path class="st1" d="M421.5,126.9H126.9l-8.8-8.8h312.2c1.6,0,2.9,1.3,2.9,2.9v230.5c0,1.6-1.3,2.9-2.9,2.9h-75.9l-39.4-39.4
				h106.4c1.7,0,3-1.4,3-3V129.9C424.5,128.3,423.1,126.9,421.5,126.9z"/>
		</g>
	</g>
</g>
</svg>
