<?xml version="1.0" encoding="utf-8"?>
<!-- Generator: Adobe Illustrator 18.1.1, SVG Export Plug-In . SVG Version: 6.00 Build 0)  -->
<svg version="1.1" xmlns="http://www.w3.org/2000/svg" xmlns:xlink="http://www.w3.org/1999/xlink" x="0px" y="0px"
	 viewBox="0 0 512 512" style="enable-background:new 0 0 512 512;" xml:space="preserve">
<style type="text/css">
	.st0{fill:#6D6E71;}
	.st1{fill:#58595B;}
	.st2{fill:#68B2E3;}
	.st3{fill:#414042;}
	.st4{fill:#76B9B0;}
	.st5{fill:#F69580;}
	.st6{fill:#FFDA7D;}
</style>
<g id="pc">
</g>
<g id="søk">
</g>
<g id="projektor">
</g>
<g id="tavle">
</g>
<g id="loggInn">
</g>
<g id="loggUt">
</g>
<g id="pcSirkel">
</g>
<g id="søkSirkel">
</g>
<g id="projektorSirkel">
</g>
<g id="tavleSirkel">
</g>
<g id="loggInnSirkel">
</g>
<g id="Layer_13">
</g>
<g id="pcHexa">
</g>
<g id="søkHexa">
</g>
<g id="projektorHexa">
</g>
<g id="tavleHexa">
</g>
<g id="loggInnHexa">
</g>
<g id="loggUtHexa">
	<g id="XMLID_5_">
		<g id="XMLID_14_">
			<g>
				<path class="st5" d="M256,0c141.4,0,256,114.6,256,256S397.4,512,256,512S0,397.4,0,256S114.6,0,256,0z M406.5,269.6
					c11.2-5.6,11.2-21.5,0-27.1l-12.3-6.1l-59.8-29.9c-8.7-4.4-19,2-19,11.7v5c0,7.3-5.9,13.1-13.1,13.1h-66h-45.1
					c-7.2,0-13.1,5.9-13.1,13.1v13.1c0,7.3,5.9,13.1,13.1,13.1h84.5h26.6c7.3,0,13.1,5.9,13.1,13.1v5c0,3.8,1.6,7.1,4,9.4
					c3.8,3.7,9.7,5,15,2.3l59.8-29.9L406.5,269.6z M396,419V396v-66.7c0-7.8-6.4-14.2-14.2-14.2h-10.9c-7.8,0-14.2,6.4-14.2,14.2
					v27.3v23.1c0,7.8-6.3,14.2-14.2,14.2H173.9c-7.8,0-14.2-6.4-14.2-14.2v-220v-27.3c0-7.8,6.4-14.2,14.2-14.2h168.5
					c7.9,0,14.2,6.3,14.2,14.2v50.3c0,7.8,6.4,14.2,14.2,14.2h10.9c7.9,0,14.2-6.4,14.2-14.2V93c0-7.8-6.4-14.2-14.2-14.2H134.5
					c-7.8,0-14.2,6.4-14.2,14.2v27.3V419c0,7.8,6.4,14.2,14.2,14.2h247.2C389.6,433.2,396,426.9,396,419z"/>
				<path d="M406.5,242.4c11.2,5.6,11.2,21.5,0,27.1l-12.3,6.1l-59.8,29.9c-5.3,2.7-11.2,1.4-15-2.3c-2.4-2.3-4-5.6-4-9.4v-5
					c0-7.3-5.9-13.1-13.1-13.1h-26.6l-39.4-39.4h66c7.3,0,13.1-5.9,13.1-13.1v-5c0-9.8,10.3-16.1,19-11.7l59.8,29.9L406.5,242.4z"/>
				<path class="st3" d="M396,396V419c0,7.8-6.4,14.2-14.2,14.2H134.5c-7.8,0-14.2-6.4-14.2-14.2V120.3l39.4,39.4v220
					c0,7.8,6.4,14.2,14.2,14.2h168.5c7.9,0,14.2-6.4,14.2-14.2v-23.1L396,396z"/>
				<path d="M396,329.3V396l-39.4-39.4v-27.3c0-7.8,6.4-14.2,14.2-14.2h10.9C389.6,315.1,396,321.5,396,329.3z"/>
				<path d="M396,93v89.7c0,7.8-6.4,14.2-14.2,14.2h-10.9c-7.8,0-14.2-6.4-14.2-14.2v-50.3c0-7.9-6.3-14.2-14.2-14.2H173.9
					c-7.8,0-14.2,6.4-14.2,14.2v27.3l-39.4-39.4V93c0-7.8,6.4-14.2,14.2-14.2h247.2C389.6,78.8,396,85.2,396,93z"/>
				<path class="st3" d="M236.3,236.3l39.4,39.4h-84.5c-7.2,0-13.1-5.9-13.1-13.1v-13.1c0-7.3,5.9-13.1,13.1-13.1H236.3z"/>
			</g>
		</g>
	</g>
</g>
</svg>
