<?xml version="1.0" encoding="utf-8"?>
<!-- Generator: Adobe Illustrator 18.1.1, SVG Export Plug-In . SVG Version: 6.00 Build 0)  -->
<svg version="1.1" xmlns="http://www.w3.org/2000/svg" xmlns:xlink="http://www.w3.org/1999/xlink" x="0px" y="0px"
	 viewBox="0 0 512 512" style="enable-background:new 0 0 512 512;" xml:space="preserve">
<style type="text/css">
	.st0{fill:#6D6E71;}
	.st1{fill:#58595B;}
	.st2{fill:#68B2E3;}
	.st3{fill:#414042;}
	.st4{fill:#76B9B0;}
	.st5{fill:#F69580;}
	.st6{fill:#FFDA7D;}
</style>
<g id="pc">
</g>
<g id="søk">
</g>
<g id="projektor">
</g>
<g id="tavle">
</g>
<g id="loggInn">
</g>
<g id="loggUt">
</g>
<g id="pcSirkel">
</g>
<g id="søkSirkel">
</g>
<g id="projektorSirkel">
</g>
<g id="tavleSirkel">
</g>
<g id="loggInnSirkel">
</g>
<g id="Layer_13">
</g>
<g id="pcHexa">
</g>
<g id="søkHexa">
</g>
<g id="projektorHexa">
</g>
<g id="tavleHexa">
</g>
<g id="loggInnHexa">
</g>
<g id="loggUtHexa">
	<g id="XMLID_4_">
		<g id="XMLID_11_">
			<g>
				<path class="st5" d="M477.7,128v256L256,512L34.3,384V128L256,0L477.7,128z M376.4,267.8c9.7-4.9,9.7-18.7,0-23.5l-10.6-5.3
					L314,213c-7.5-3.8-16.5,1.7-16.5,10.2v4.4c0,6.3-5.1,11.4-11.4,11.4h-57.2h-39.1c-6.3,0-11.4,5.1-11.4,11.4v11.4
					c0,6.3,5.1,11.4,11.4,11.4h73.2h23.1c6.3,0,11.4,5.1,11.4,11.4v4.4c0,3.3,1.4,6.1,3.4,8.1c3.3,3.2,8.4,4.3,13,2l51.8-25.9
					L376.4,267.8z M367.3,397.3v-20v-57.8c0-6.8-5.5-12.3-12.3-12.3h-9.5c-6.8,0-12.3,5.5-12.3,12.3v23.6v20
					c0,6.8-5.5,12.3-12.3,12.3h-146c-6.8,0-12.3-5.5-12.3-12.3V172.5v-23.6c0-6.8,5.5-12.3,12.3-12.3h146c6.8,0,12.3,5.5,12.3,12.3
					v43.6c0,6.8,5.5,12.3,12.3,12.3h9.5c6.8,0,12.3-5.5,12.3-12.3v-77.7c0-6.8-5.5-12.3-12.3-12.3H140.7c-6.8,0-12.3,5.5-12.3,12.3
					v23.6v258.9c0,6.8,5.5,12.3,12.3,12.3H355C361.8,409.6,367.3,404.1,367.3,397.3z"/>
				<path d="M376.4,244.2c9.7,4.9,9.7,18.7,0,23.5l-10.6,5.3L314,299c-4.6,2.3-9.7,1.2-13-2c-2.1-2-3.4-4.9-3.4-8.1v-4.4
					c0-6.3-5.1-11.4-11.4-11.4h-23.1l-34.1-34.1h57.2c6.3,0,11.4-5.1,11.4-11.4v-4.4c0-8.4,8.9-13.9,16.5-10.2l51.8,25.9
					L376.4,244.2z"/>
				<path class="st3" d="M367.3,377.3v20c0,6.8-5.5,12.3-12.3,12.3H140.7c-6.8,0-12.3-5.5-12.3-12.3V138.4l34.1,34.1v190.7
					c0,6.8,5.5,12.3,12.3,12.3h146c6.8,0,12.3-5.5,12.3-12.3v-20L367.3,377.3z"/>
				<path d="M367.3,319.5v57.8l-34.1-34.1v-23.6c0-6.8,5.5-12.3,12.3-12.3h9.5C361.8,307.2,367.3,312.7,367.3,319.5z"/>
				<path d="M367.3,114.7v77.7c0,6.8-5.5,12.3-12.3,12.3h-9.5c-6.8,0-12.3-5.5-12.3-12.3v-43.6c0-6.8-5.5-12.3-12.3-12.3h-146
					c-6.8,0-12.3,5.5-12.3,12.3v23.6l-34.1-34.1v-23.6c0-6.8,5.5-12.3,12.3-12.3H355C361.8,102.4,367.3,107.9,367.3,114.7z"/>
				<path class="st3" d="M228.9,238.9l34.1,34.1h-73.2c-6.3,0-11.4-5.1-11.4-11.4v-11.4c0-6.3,5.1-11.4,11.4-11.4H228.9z"/>
			</g>
		</g>
	</g>
</g>
</svg>
