<?xml version="1.0" encoding="utf-8"?>
<!-- Generator: Adobe Illustrator 18.1.1, SVG Export Plug-In . SVG Version: 6.00 Build 0)  -->
<svg version="1.1" xmlns="http://www.w3.org/2000/svg" xmlns:xlink="http://www.w3.org/1999/xlink" x="0px" y="0px"
	 viewBox="0 0 512 512" style="enable-background:new 0 0 512 512;" xml:space="preserve">
<style type="text/css">
	.st0{fill:#6D6E71;}
	.st1{fill:#58595B;}
	.st2{fill:#68B2E3;}
	.st3{fill:#414042;}
	.st4{fill:#76B9B0;}
	.st5{fill:#F69580;}
	.st6{fill:#FFDA7D;}
</style>
<g id="pc">
</g>
<g id="søk">
</g>
<g id="projektor">
</g>
<g id="tavle">
</g>
<g id="loggInn">
</g>
<g id="loggUt">
</g>
<g id="pcSirkel">
</g>
<g id="søkSirkel">
</g>
<g id="projektorSirkel">
</g>
<g id="tavleSirkel">
</g>
<g id="loggInnSirkel">
</g>
<g id="Layer_13">
</g>
<g id="pcHexa">
</g>
<g id="søkHexa">
</g>
<g id="projektorHexa">
</g>
<g id="tavleHexa">
</g>
<g id="loggInnHexa">
</g>
<g id="loggUtHexa">
	<g id="XMLID_8_">
		<g>
			<path class="st1" d="M406.5,242.4c11.2,5.6,11.2,21.6,0,27.1l-12.3,6.1l-59.8,29.9c-8.7,4.4-19-2-19-11.7v-5
				c0-7.3-5.9-13.1-13.1-13.1h-26.6l-39.4-39.4h66c7.3,0,13.1-5.9,13.1-13.1v-5c0-9.8,10.3-16.1,19-11.7l59.8,29.9L406.5,242.4z"/>
			<path class="st0" d="M396,396V419c0,7.8-6.4,14.2-14.2,14.2H134.5c-7.8,0-14.2-6.4-14.2-14.2V120.3l39.4,39.4v220
				c0,7.9,6.4,14.2,14.2,14.2h168.5c7.9,0,14.2-6.4,14.2-14.2v-23L396,396z"/>
			<path class="st1" d="M396,329.3V396l-39.4-39.4v-27.3c0-7.9,6.4-14.2,14.2-14.2h10.9C389.6,315.1,396,321.4,396,329.3z"/>
			<path class="st1" d="M396,93v89.7c0,7.9-6.4,14.2-14.2,14.2h-10.9c-7.9,0-14.2-6.4-14.2-14.2v-50.3c0-7.9-6.4-14.2-14.2-14.2
				H173.9c-7.9,0-14.2,6.4-14.2,14.2v27.3l-39.4-39.4V93c0-7.8,6.4-14.2,14.2-14.2h247.3C389.6,78.8,396,85.1,396,93z"/>
			<path class="st0" d="M275.7,275.7h-84.4c-7.3,0-13.1-5.9-13.1-13.1v-13.1c0-7.3,5.9-13.1,13.1-13.1h45.1L275.7,275.7z"/>
		</g>
	</g>
</g>
</svg>
