<?xml version="1.0" encoding="utf-8"?>
<!-- Generator: Adobe Illustrator 18.1.1, SVG Export Plug-In . SVG Version: 6.00 Build 0)  -->
<svg version="1.1" xmlns="http://www.w3.org/2000/svg" xmlns:xlink="http://www.w3.org/1999/xlink" x="0px" y="0px"
	 viewBox="0 0 512 512" style="enable-background:new 0 0 512 512;" xml:space="preserve">
<style type="text/css">
	.st0{fill:#6D6E71;}
	.st1{fill:#58595B;}
	.st2{fill:#68B2E3;}
	.st3{fill:#414042;}
	.st4{fill:#76B9B0;}
	.st5{fill:#F69580;}
	.st6{fill:#FFDA7D;}
</style>
<g id="pc">
</g>
<g id="søk">
</g>
<g id="projektor">
</g>
<g id="tavle">
</g>
<g id="loggInn">
</g>
<g id="loggUt">
</g>
<g id="pcSirkel">
</g>
<g id="søkSirkel">
</g>
<g id="projektorSirkel">
</g>
<g id="tavleSirkel">
</g>
<g id="loggInnSirkel">
</g>
<g id="Layer_13">
</g>
<g id="pcHexa">
</g>
<g id="søkHexa">
</g>
<g id="projektorHexa">
</g>
<g id="tavleHexa">
</g>
<g id="loggInnHexa">
</g>
<g id="loggUtHexa">
	<g>
		<g id="XMLID_18_">
			<g>
				<path class="st6" d="M256,0c141.4,0,256,114.6,256,256S397.4,512,256,512S0,397.4,0,256S114.6,0,256,0z M433.2,373.1V138.9
					c0-11.5-9.3-20.8-20.8-20.8H118.2H99.6c-11.5,0-20.8,9.3-20.8,20.8v234.1c0,11.5,9.3,20.8,20.8,20.8h294.3h18.6
					C423.9,393.9,433.2,384.5,433.2,373.1z"/>
				<path d="M433.2,138.9v234.1c0,11.5-9.3,20.8-20.8,20.8h-18.6l-8.8-8.8h27.4c6.7,0,12-5.4,12-12V138.9c0-6.7-5.4-12-12-12H126.9
					l-8.8-8.8h294.3C423.9,118.2,433.2,127.5,433.2,138.9z"/>
				<path class="st6" d="M424.5,138.9v234.1c0,6.7-5.4,12-12,12h-27.4H99.6c-6.7,0-12-5.4-12-12V138.9c0-6.7,5.4-12,12-12h27.4
					h285.5C419.1,126.9,424.5,132.3,424.5,138.9z M409.2,359.9V152.1c0-5.4-4.5-9.9-9.9-9.9h-257h-29.5c-5.4,0-9.8,4.4-9.8,9.8
					v207.8c0,5.4,4.5,9.9,9.9,9.9h257h29.5C404.7,369.8,409.2,365.3,409.2,359.9z"/>
				<path d="M409.2,152.1v207.8c0,5.4-4.5,9.9-9.9,9.9h-29.5L142.2,142.2h257C404.7,142.2,409.2,146.7,409.2,152.1z"/>
				<path class="st3" d="M393.9,393.9H99.6c-11.5,0-20.8-9.3-20.8-20.8V138.9c0-11.5,9.3-20.8,20.8-20.8h18.6l8.8,8.8H99.6
					c-6.7,0-12,5.4-12,12v234.1c0,6.7,5.4,12,12,12h285.5L393.9,393.9z"/>
				<path class="st3" d="M369.8,369.8h-257c-5.4,0-9.9-4.5-9.9-9.9V152.1c0-5.4,4.4-9.8,9.8-9.8h29.5L369.8,369.8z"/>
			</g>
		</g>
	</g>
</g>
</svg>
