<?xml version="1.0" encoding="utf-8"?>
<!-- Generator: Adobe Illustrator 18.1.1, SVG Export Plug-In . SVG Version: 6.00 Build 0)  -->
<svg version="1.1" xmlns="http://www.w3.org/2000/svg" xmlns:xlink="http://www.w3.org/1999/xlink" x="0px" y="0px"
	 viewBox="0 0 512 512" style="enable-background:new 0 0 512 512;" xml:space="preserve">
<style type="text/css">
	.st0{fill:#6D6E71;}
	.st1{fill:#58595B;}
	.st2{fill:#68B2E3;}
	.st3{fill:#414042;}
	.st4{fill:#76B9B0;}
	.st5{fill:#F69580;}
	.st6{fill:#FFDA7D;}
</style>
<g id="pc">
</g>
<g id="søk">
</g>
<g id="projektor">
</g>
<g id="tavle">
</g>
<g id="loggInn">
</g>
<g id="loggUt">
</g>
<g id="pcSirkel">
</g>
<g id="søkSirkel">
</g>
<g id="projektorSirkel">
</g>
<g id="tavleSirkel">
</g>
<g id="loggInnSirkel">
</g>
<g id="Layer_13">
</g>
<g id="pcHexa">
</g>
<g id="søkHexa">
</g>
<g id="projektorHexa">
</g>
<g id="tavleHexa">
</g>
<g id="loggInnHexa">
</g>
<g id="loggUtHexa">
	<g>
		<g id="XMLID_16_">
			<g>
				<path class="st2" d="M478.1,128v256L256,512L33.9,384V128L256,0L478.1,128z M409.9,330.4v-183c0-6-4.9-10.9-10.9-10.9H136.3
					h-23.3c-6,0-10.9,4.9-10.9,10.9v183c0,6,4.9,10.9,10.9,10.9h228.4h57.4C405,341.3,409.9,336.4,409.9,330.4z M204.7,409.6h102.6
					l-21.1-13.9l-13.1-46.3h-34.2l-13.1,46.6L204.7,409.6z"/>
				<path d="M409.9,147.4v183c0,6-4.9,10.9-10.9,10.9h-57.4l-34.2-34.1h83.6c6.3,0,11.4-5.1,11.4-11.4V155.5
					c0-6.3-5.1-11.4-11.4-11.4h-247l-7.6-7.6h262.6C405,136.5,409.9,141.4,409.9,147.4z"/>
				<path class="st2" d="M402.3,155.5v140.3c0,6.3-5.1,11.4-11.4,11.4h-83.6H121.1c-6.3,0-11.4-5.1-11.4-11.4V155.5
					c0-6.3,5.1-11.4,11.4-11.4h22.8h247C397.2,144.1,402.3,149.2,402.3,155.5z"/>
				<path class="st3" d="M341.5,341.3H113.1c-6,0-10.9-4.9-10.9-10.9v-183c0-6,4.9-10.9,10.9-10.9h23.3l7.6,7.6h-22.8
					c-6.3,0-11.4,5.1-11.4,11.4v140.3c0,6.3,5.1,11.4,11.4,11.4h186.2L341.5,341.3z"/>
				<polygon class="st3" points="307.3,409.6 204.7,409.6 225.8,395.9 238.9,349.4 273.1,349.4 286.2,395.7 				"/>
			</g>
		</g>
	</g>
</g>
</svg>
