<?xml version="1.0" encoding="utf-8"?>
<!-- Generator: Adobe Illustrator 18.1.1, SVG Export Plug-In . SVG Version: 6.00 Build 0)  -->
<svg version="1.1" xmlns="http://www.w3.org/2000/svg" xmlns:xlink="http://www.w3.org/1999/xlink" x="0px" y="0px"
	 viewBox="0 0 512 512" style="enable-background:new 0 0 512 512;" xml:space="preserve">
<style type="text/css">
	.st0{fill:#6D6E71;}
	.st1{fill:#58595B;}
	.st2{fill:#68B2E3;}
	.st3{fill:#414042;}
	.st4{fill:#76B9B0;}
	.st5{fill:#F69580;}
	.st6{fill:#FFDA7D;}
</style>
<g id="pc">
</g>
<g id="søk">
</g>
<g id="projektor">
</g>
<g id="tavle">
</g>
<g id="loggInn">
</g>
<g id="loggUt">
</g>
<g id="pcSirkel">
</g>
<g id="søkSirkel">
</g>
<g id="projektorSirkel">
</g>
<g id="tavleSirkel">
</g>
<g id="loggInnSirkel">
</g>
<g id="Layer_13">
</g>
<g id="pcHexa">
</g>
<g id="søkHexa">
</g>
<g id="projektorHexa">
</g>
<g id="tavleHexa">
</g>
<g id="loggInnHexa">
</g>
<g id="loggUtHexa">
	<g>
		<g id="XMLID_9_">
			<g>
				<path class="st3" d="M262.9,268.8l1.3-1.9l1.1-1.7l28.3,28.3l111.2,111.2c-5.2,2-11.3,1.5-16.2-1.9l-121-83.1
					c-39.3,28.7-94,31-136.5,1.9c-53.8-36.9-67.5-110.5-30.5-164.3c7.9-11.5,17.4-21.1,28-28.8L157,157c-9.2,5.6-17.5,13.2-24,22.7
					c-24.6,35.9-15.5,84.9,20.3,109.5C189.2,313.8,238.3,304.7,262.9,268.8z"/>
				<path class="st4" d="M256,0c141.4,0,256,114.6,256,256S397.4,512,256,512S0,397.4,0,256S114.6,0,256,0z M437.6,362.3
					c5.5-8,3.5-18.9-4.5-24.3l-121-83.1c12.6-47-4.9-98.9-47.3-128c-42.4-29.1-97-26.8-136.3,1.7c-10.6,7.8-20.1,17.4-28,28.8
					c-36.9,53.8-23.2,127.3,30.5,164.3c42.4,29.1,97.1,26.8,136.5-1.9l121,83.1c4.9,3.4,11,3.9,16.2,1.9c3.1-1.2,6-3.4,8.1-6.4
					L437.6,362.3z"/>
				<path d="M433.1,337.9c8,5.5,10,16.4,4.5,24.3l-24.8,36c-2.1,3-4.9,5.2-8.1,6.4L293.6,293.6l-28.3-28.3l-0.1-0.1
					c21.7-35.4,12-82.1-22.7-105.9c-26.3-18.1-59.9-17.9-85.6-2.3l-28.4-28.4c39.3-28.5,94-30.8,136.3-1.7
					c42.4,29.1,59.9,81,47.3,128L433.1,337.9z"/>
				<path class="st4" d="M242.5,159.3c34.7,23.8,44.3,70.5,22.7,105.9l0.1,0.1l-1.1,1.7l-1.3,1.9c-24.6,35.8-73.6,45-109.5,20.4
					c-35.8-24.6-44.9-73.6-20.3-109.5c6.5-9.5,14.7-17.1,24-22.7C182.7,141.4,216.2,141.2,242.5,159.3z"/>
			</g>
		</g>
	</g>
</g>
</svg>
