<?xml version="1.0" encoding="utf-8"?>
<!-- Generator: Adobe Illustrator 18.1.1, SVG Export Plug-In . SVG Version: 6.00 Build 0)  -->
<svg version="1.1" xmlns="http://www.w3.org/2000/svg" xmlns:xlink="http://www.w3.org/1999/xlink" x="0px" y="0px"
	 viewBox="0 0 512 512" style="enable-background:new 0 0 512 512;" xml:space="preserve">
<style type="text/css">
	.st0{fill:#6D6E71;}
	.st1{fill:#58595B;}
	.st2{fill:#68B2E3;}
	.st3{fill:#414042;}
	.st4{fill:#76B9B0;}
	.st5{fill:#F69580;}
	.st6{fill:#FFDA7D;}
</style>
<g id="pc">
</g>
<g id="søk">
</g>
<g id="projektor">
</g>
<g id="tavle">
</g>
<g id="loggInn">
</g>
<g id="loggUt">
</g>
<g id="pcSirkel">
</g>
<g id="søkSirkel">
</g>
<g id="projektorSirkel">
</g>
<g id="tavleSirkel">
</g>
<g id="loggInnSirkel">
</g>
<g id="Layer_13">
</g>
<g id="pcHexa">
</g>
<g id="søkHexa">
</g>
<g id="projektorHexa">
</g>
<g id="tavleHexa">
</g>
<g id="loggInnHexa">
</g>
<g id="loggUtHexa">
	<g id="XMLID_1_">
		<g>
			<path class="st0" d="M226.5,236.3H88.6c-2.7,0-5.2,1.1-7,2.9c-1.8,1.8-2.9,4.2-2.9,7c0,5.4,4.4,9.8,9.8,9.8h137.8
				c2.7,0,5.2-1.1,7-2.9c1.8-1.8,2.9-4.2,2.9-7C236.3,240.7,231.9,236.3,226.5,236.3z M216.6,216.6l62.9,62.9
				c7.5,22.7,25.6,40.7,48.7,48.7l26.3,26.3H47.1c-4.3,0-7.7-3.5-7.7-7.7V165.3c0-4.3,3.5-7.7,7.7-7.7h110.4l39.4,39.4H88.6
				c-2.7,0-5.2,1.1-7,2.9c-1.8,1.8-2.9,4.2-2.9,7c0,5.4,4.4,9.8,9.8,9.8H216.6z M236.3,285.5c0-5.4-4.4-9.8-9.8-9.8H88.6
				c-2.7,0-5.2,1.1-7,2.9c-1.8,1.8-2.9,4.2-2.9,7c0,5.4,4.4,9.8,9.8,9.8h137.8c2.7,0,5.2-1.1,7-2.9
				C235.2,290.7,236.3,288.3,236.3,285.5z"/>
			<path class="st1" d="M279.5,279.5l-62.9-62.9h9.8c2.7,0,5.2-1.1,7-2.9c1.8-1.8,2.9-4.2,2.9-7c0-5.4-4.4-9.8-9.8-9.8h-29.5
				l-39.4-39.4h307.3c4.3,0,7.7,3.5,7.7,7.7v181.4c0,4.3-3.5,7.7-7.7,7.7H354.5l-26.3-26.3c8.2,2.8,17.1,4.4,26.3,4.4
				c43.5,0,78.8-34.4,78.8-76.6s-35.3-76.6-78.8-76.6s-78.8,34.4-78.8,76.6C275.7,264.2,277,272.1,279.5,279.5z"/>
			<path class="st1" d="M354.5,196.9c33.6,0,60.8,26.4,60.8,59.1s-27.2,59.1-60.8,59.1s-60.8-26.4-60.8-59.1
				S320.9,196.9,354.5,196.9z"/>
		</g>
	</g>
</g>
</svg>
