<?xml version="1.0" encoding="utf-8"?>
<!-- Generator: Adobe Illustrator 18.1.1, SVG Export Plug-In . SVG Version: 6.00 Build 0)  -->
<svg version="1.1" xmlns="http://www.w3.org/2000/svg" xmlns:xlink="http://www.w3.org/1999/xlink" x="0px" y="0px"
	 viewBox="0 0 512 512" style="enable-background:new 0 0 512 512;" xml:space="preserve">
<style type="text/css">
	.st0{fill:#6D6E71;}
	.st1{fill:#58595B;}
	.st2{fill:#68B2E3;}
	.st3{fill:#414042;}
	.st4{fill:#76B9B0;}
	.st5{fill:#F69580;}
	.st6{fill:#FFDA7D;}
</style>
<g id="pc">
</g>
<g id="søk">
</g>
<g id="projektor">
</g>
<g id="tavle">
</g>
<g id="loggInn">
</g>
<g id="loggUt">
</g>
<g id="pcSirkel">
</g>
<g id="søkSirkel">
</g>
<g id="projektorSirkel">
</g>
<g id="tavleSirkel">
</g>
<g id="loggInnSirkel">
</g>
<g id="Layer_13">
</g>
<g id="pcHexa">
</g>
<g id="søkHexa">
</g>
<g id="projektorHexa">
</g>
<g id="tavleHexa">
</g>
<g id="loggInnHexa">
</g>
<g id="loggUtHexa">
	<g>
		<g id="XMLID_19_">
			<g>
				<path class="st5" d="M256,0c141.4,0,256,114.6,256,256S397.4,512,256,512S0,397.4,0,256S114.6,0,256,0z M472.6,320.5V191.5
					c0-18.7-15.2-33.9-33.9-33.9H157.5H73.3c-18.7,0-33.9,15.2-33.9,33.9v129.1c0,18.7,15.2,33.9,33.9,33.9h281.2h84.2
					C457.4,354.5,472.6,339.3,472.6,320.5z"/>
				<path class="st5" d="M433.2,256c0,42.2-35.3,76.6-78.8,76.6c-9.2,0-18-1.5-26.3-4.4c-23.1-8-41.2-26-48.7-48.7
					c-2.5-7.4-3.8-15.3-3.8-23.5c0-42.2,35.3-76.6,78.8-76.6C397.9,179.4,433.2,213.8,433.2,256z M415.3,256
					c0-32.6-27.2-59.1-60.8-59.1c-33.6,0-60.8,26.4-60.8,59.1c0,32.6,27.2,59.1,60.8,59.1C388,315.1,415.3,288.6,415.3,256z"/>
				<path d="M354.5,196.9c33.6,0,60.8,26.4,60.8,59.1c0,32.6-27.2,59.1-60.8,59.1c-33.6,0-60.8-26.4-60.8-59.1
					C293.7,223.4,320.9,196.9,354.5,196.9z"/>
				<path class="st3" d="M279.5,279.5c7.5,22.7,25.6,40.8,48.7,48.7l26.3,26.3H73.3c-18.7,0-33.9-15.2-33.9-33.9V191.5
					c0-18.7,15.2-33.9,33.9-33.9h84.2l39.4,39.4H88.6c-2.7,0-5.2,1.1-7,2.9c-1.8,1.8-2.9,4.2-2.9,6.9c0,5.4,4.4,9.8,9.9,9.8h128
					L279.5,279.5z M233.4,253.1c1.8-1.8,2.9-4.3,2.9-7c0-5.4-4.4-9.9-9.8-9.9H88.6c-2.7,0-5.2,1.1-7,2.9c-1.8,1.8-2.9,4.3-2.9,7
					c0,5.4,4.4,9.8,9.9,9.8h137.8C229.2,256,231.6,254.9,233.4,253.1z M233.4,292.5c1.8-1.8,2.9-4.2,2.9-7c0-5.4-4.4-9.8-9.8-9.8
					H88.6c-2.7,0-5.2,1.1-7,2.9c-1.8,1.8-2.9,4.2-2.9,7c0,5.4,4.4,9.9,9.9,9.9h137.8C229.2,295.4,231.6,294.3,233.4,292.5z"/>
				<path d="M275.7,256c0,8.2,1.3,16.1,3.8,23.5l-62.9-62.9h9.8c2.7,0,5.2-1.1,7-2.9c1.8-1.8,2.9-4.2,2.9-7c0-5.4-4.4-9.8-9.8-9.8
					h-29.5l-39.4-39.4h281.2c18.7,0,33.9,15.2,33.9,33.9v129.1c0,18.7-15.2,33.9-33.9,33.9h-84.2l-26.3-26.3
					c8.2,2.8,17.1,4.4,26.3,4.4c43.5,0,78.8-34.4,78.8-76.6c0-42.2-35.3-76.6-78.8-76.6C311,179.4,275.7,213.8,275.7,256z"/>
				<path class="st5" d="M236.3,206.8c0,2.7-1.1,5.2-2.9,7c-1.8,1.8-4.3,2.9-7,2.9h-9.8h-128c-5.4,0-9.9-4.4-9.9-9.8
					c0-2.7,1.1-5.2,2.9-6.9c1.8-1.8,4.2-2.9,7-2.9h108.3h29.5C231.9,196.9,236.3,201.4,236.3,206.8z"/>
				<path class="st5" d="M236.3,246.2c0,2.7-1.1,5.2-2.9,7c-1.8,1.8-4.3,2.9-7,2.9H88.6c-5.4,0-9.9-4.4-9.9-9.8c0-2.7,1.1-5.2,2.9-7
					c1.8-1.8,4.2-2.9,7-2.9h137.8C231.9,236.3,236.3,240.7,236.3,246.2z"/>
				<path class="st5" d="M236.3,285.5c0,2.7-1.1,5.2-2.9,7c-1.8,1.8-4.3,2.9-7,2.9H88.6c-5.4,0-9.9-4.4-9.9-9.9c0-2.7,1.1-5.2,2.9-7
					c1.8-1.8,4.2-2.9,7-2.9h137.8C231.9,275.7,236.3,280.1,236.3,285.5z"/>
			</g>
		</g>
	</g>
</g>
</svg>
