<?xml version="1.0" encoding="utf-8"?>
<!-- Generator: Adobe Illustrator 18.1.1, SVG Export Plug-In . SVG Version: 6.00 Build 0)  -->
<svg version="1.1" xmlns="http://www.w3.org/2000/svg" xmlns:xlink="http://www.w3.org/1999/xlink" x="0px" y="0px"
	 viewBox="0 0 512 512" style="enable-background:new 0 0 512 512;" xml:space="preserve">
<style type="text/css">
	.st0{fill:#6D6E71;}
	.st1{fill:#58595B;}
	.st2{fill:#68B2E3;}
	.st3{fill:#414042;}
	.st4{fill:#76B9B0;}
	.st5{fill:#F69580;}
	.st6{fill:#FFDA7D;}
</style>
<g id="pc">
</g>
<g id="søk">
</g>
<g id="projektor">
</g>
<g id="tavle">
</g>
<g id="loggInn">
</g>
<g id="loggUt">
</g>
<g id="pcSirkel">
</g>
<g id="søkSirkel">
</g>
<g id="projektorSirkel">
</g>
<g id="tavleSirkel">
</g>
<g id="loggInnSirkel">
</g>
<g id="Layer_13">
</g>
<g id="pcHexa">
</g>
<g id="søkHexa">
</g>
<g id="projektorHexa">
</g>
<g id="tavleHexa">
</g>
<g id="loggInnHexa">
</g>
<g id="loggUtHexa">
	<g id="XMLID_3_">
		<g id="XMLID_21_">
			<g>
				<path class="st1" d="M312.1,254.8l132.1,90.7c1.8,1.2,2.3,3.7,1,5.5L406.9,407L293.6,293.5l-28.3-28.3l-0.1-0.1
					c21.6-35.5,12-82.1-22.7-105.9c-26.4-18.1-59.9-18-85.6-2.3l-28.4-28.4c39.3-28.5,93.9-30.8,136.2-1.7
					C307.2,155.9,324.7,207.8,312.1,254.8z"/>
				<path class="st0" d="M128.6,128.6L157,157c-9.3,5.6-17.4,13.2-24,22.7c-24.6,35.9-15.5,84.9,20.3,109.5
					c35.9,24.6,84.9,15.5,109.5-20.4l0.6-0.9l1.8-2.6l28.3,28.3L406.9,407l-1.7,2.5c-1.2,1.8-3.7,2.3-5.5,1l-132.1-90.7
					c-39.4,28.7-94,31-136.4,1.9c-53.8-36.9-67.5-110.5-30.5-164.3C108.4,145.9,117.9,136.3,128.6,128.6z"/>
				<path class="st1" d="M265.3,265.2L265.3,265.2l-1.8,2.7C264.1,267,264.7,266.1,265.3,265.2z"/>
			</g>
		</g>
	</g>
</g>
</svg>
