<?xml version="1.0" encoding="utf-8"?>
<!-- Generator: Adobe Illustrator 18.1.1, SVG Export Plug-In . SVG Version: 6.00 Build 0)  -->
<svg version="1.1" id="Layer_1" xmlns="http://www.w3.org/2000/svg" xmlns:xlink="http://www.w3.org/1999/xlink" x="0px" y="0px"
	 viewBox="0 0 558.8 297.4" enable-background="new 0 0 558.8 297.4" xml:space="preserve">
<g>
	<g>
		<g>
			<g>
				<g>
					
						<path fill="none" stroke="#000000" stroke-width="2" stroke-linecap="round" stroke-linejoin="round" stroke-miterlimit="10" d="
						M372.6,1c23.2,0-1.8,53.9,22.3,53.9c20.9,0,5.7-37.6,24.2-37.6c18.5,0,3.2,76.3,24.2,76.3c24.2,0-0.9-92.7,22.3-92.7
						c23.2,0-1.8,92.7,22.3,92.7c20.9,0,5.7-76.3,24.2-76.3c18.5,0,3.2,37.6,24.2,37.6c24.2,0-0.9-53.9,22.3-53.9"/>
				</g>
			</g>
			<g>
				<g>
					
						<path fill="none" stroke="#000000" stroke-width="2" stroke-linecap="round" stroke-linejoin="round" stroke-miterlimit="10" d="
						M186.6,1c23.2,0-1.8,53.9,22.3,53.9c20.9,0,5.7-37.6,24.2-37.6c18.5,0,3.2,76.3,24.2,76.3c24.2,0-0.9-92.7,22.3-92.7
						c23.2,0-1.8,92.7,22.3,92.7c20.9,0,5.7-76.3,24.2-76.3s3.2,37.6,24.2,37.6c24.2,0-0.9-53.9,22.3-53.9"/>
				</g>
			</g>
			<g>
				<g>
					
						<path fill="none" stroke="#000000" stroke-width="2" stroke-linecap="round" stroke-linejoin="round" stroke-miterlimit="10" d="
						M0.3,1c23.2,0-1.8,53.9,22.3,53.9c20.9,0,5.7-37.6,24.2-37.6S50,93.7,70.9,93.7C95.1,93.7,70,1,93.3,1
						c23.2,0-1.8,92.7,22.3,92.7c20.9,0,5.7-76.3,24.2-76.3c18.5,0,3.2,37.6,24.2,37.6C188.1,54.9,163,1,186.2,1"/>
				</g>
			</g>
		</g>
	</g>
	<g>
		<g>
			<g>
				<g>
					
						<path fill="none" stroke="#000000" stroke-width="2" stroke-linecap="round" stroke-linejoin="round" stroke-miterlimit="10" d="
						M372.6,243.6c29.1,0,17.4,52.8,46.5,52.8c29.1,0,17.4-52.8,46.5-52.8c29.1,0,17.4,52.8,46.5,52.8s17.4-52.8,46.5-52.8"/>
					
						<polyline fill="none" stroke="#000000" stroke-width="2" stroke-linecap="round" stroke-linejoin="round" stroke-miterlimit="10" points="
						558.6,181.7 508.9,260.6 465.6,198.7 422.3,260.6 372.6,181.7 					"/>
				</g>
			</g>
			<g>
				<g>
					
						<path fill="none" stroke="#000000" stroke-width="2" stroke-linecap="round" stroke-linejoin="round" stroke-miterlimit="10" d="
						M186.6,243.6c29.1,0,17.4,52.8,46.5,52.8c29.1,0,17.4-52.8,46.5-52.8c29.1,0,17.4,52.8,46.5,52.8c29.1,0,17.4-52.8,46.5-52.8"
						/>
					
						<polyline fill="none" stroke="#000000" stroke-width="2" stroke-linecap="round" stroke-linejoin="round" stroke-miterlimit="10" points="
						372.6,181.7 322.9,260.6 279.6,198.7 236.3,260.6 186.6,181.7 					"/>
				</g>
			</g>
			<g>
				<g>
					
						<path fill="none" stroke="#000000" stroke-width="2" stroke-linecap="round" stroke-linejoin="round" stroke-miterlimit="10" d="
						M0.3,243.6c29.1,0,17.4,52.8,46.5,52.8c29.1,0,17.4-52.8,46.5-52.8c29.1,0,17.4,52.8,46.5,52.8s17.4-52.8,46.5-52.8"/>
					
						<polyline fill="none" stroke="#000000" stroke-width="2" stroke-linecap="round" stroke-linejoin="round" stroke-miterlimit="10" points="
						186.2,181.7 136.6,260.6 93.3,198.7 50,260.6 0.3,181.7 					"/>
				</g>
			</g>
			<g>
				<g>
					<g>
						
							<polyline fill="none" stroke="#000000" stroke-width="2" stroke-linecap="round" stroke-linejoin="round" stroke-miterlimit="10" points="
							558.6,71.3 507.3,235.2 465.6,141.7 423.9,235.2 372.6,71.3 						"/>
					</g>
					
						<path fill="none" stroke="#000000" stroke-width="2" stroke-linecap="round" stroke-linejoin="round" stroke-miterlimit="10" d="
						M558.6,157.1c4.9,0,8.8-4,8.8-8.9c0-2.1-0.7-4.1-2-5.6l-6.4-7.8l-32.3-39.3v0l-33.5,45.3l-2.3,3.2c-1,1.4-1.4,3.2-1.4,5
						c0,4.7,3.8,8.6,8.6,8.6c4.7,0,8.6-3.8,8.6-8.6c0-1.8-0.6-3.5-1.5-4.9l-0.6-0.9l-38.8-47.3l-38.8,47.3l-0.6,0.9
						c-1,1.4-1.5,3.1-1.5,4.9c0,4.7,3.8,8.6,8.6,8.6c4.7,0,8.6-3.8,8.6-8.6c0-1.8-0.5-3.6-1.5-5l-2.3-3.2l-33.5-45.3v0l-32.3,39.3
						l-6.4,7.8c-1.2,1.5-2,3.5-2,5.6c0,4.9,3.9,8.9,8.8,8.9"/>
				</g>
				<g>
					<g>
						
							<polyline fill="none" stroke="#000000" stroke-width="2" stroke-linecap="round" stroke-linejoin="round" stroke-miterlimit="10" points="
							372.6,71.3 321.3,235.2 279.6,141.7 237.9,235.2 186.6,71.3 						"/>
					</g>
					
						<path fill="none" stroke="#000000" stroke-width="2" stroke-linecap="round" stroke-linejoin="round" stroke-miterlimit="10" d="
						M372.6,157.1c4.9,0,8.8-4,8.8-8.9c0-2.1-0.7-4.1-2-5.6l-6.4-7.8l-32.3-39.3v0l-33.5,45.3l-2.3,3.2c-1,1.4-1.4,3.2-1.4,5
						c0,4.7,3.8,8.6,8.6,8.6c4.7,0,8.6-3.8,8.6-8.6c0-1.8-0.6-3.5-1.5-4.9l-0.6-0.9l-38.8-47.3l-38.8,47.3l-0.6,0.9
						c-1,1.4-1.5,3.1-1.5,4.9c0,4.7,3.8,8.6,8.6,8.6s8.6-3.8,8.6-8.6c0-1.8-0.5-3.6-1.5-5l-2.3-3.2l-33.5-45.3v0l-32.3,39.3
						l-6.4,7.8c-1.2,1.5-2,3.5-2,5.6c0,4.9,3.9,8.9,8.8,8.9"/>
				</g>
				<g>
					<g>
						
							<polyline fill="none" stroke="#000000" stroke-width="2" stroke-linecap="round" stroke-linejoin="round" stroke-miterlimit="10" points="
							186.2,71.3 135,235.2 93.3,141.7 51.6,235.2 0.3,71.3 						"/>
					</g>
					
						<path fill="none" stroke="#000000" stroke-width="2" stroke-linecap="round" stroke-linejoin="round" stroke-miterlimit="10" d="
						M186.2,157.1c4.9,0,8.8-4,8.8-8.9c0-2.1-0.7-4.1-2-5.6l-6.4-7.8l-32.3-39.3v0l-33.5,45.3l-2.3,3.2c-1,1.4-1.4,3.2-1.4,5
						c0,4.7,3.8,8.6,8.6,8.6s8.6-3.8,8.6-8.6c0-1.8-0.6-3.5-1.5-4.9l-0.6-0.9L93.3,95.9l-38.8,47.3l-0.6,0.9c-1,1.4-1.5,3.1-1.5,4.9
						c0,4.7,3.8,8.6,8.6,8.6c4.7,0,8.6-3.8,8.6-8.6c0-1.8-0.5-3.6-1.5-5l-2.3-3.2L32.2,95.5v0l-32.3,39.3l-6.4,7.8
						c-1.2,1.5-2,3.5-2,5.6c0,4.9,3.9,8.9,8.8,8.9"/>
				</g>
			</g>
		</g>
	</g>
</g>
<g>
	<g>
		<g>
			<g>
				<g>
					
						<path fill="none" stroke="#000000" stroke-width="2" stroke-linecap="round" stroke-linejoin="round" stroke-miterlimit="10" d="
						M931.1,1c23.2,0-1.8,53.9,22.3,53.9c20.9,0,5.7-37.6,24.2-37.6c18.5,0,3.2,76.3,24.2,76.3c24.2,0-0.9-92.7,22.3-92.7
						c23.2,0-1.8,92.7,22.3,92.7c20.9,0,5.7-76.3,24.2-76.3c18.5,0,3.2,37.6,24.2,37.6c24.2,0-0.9-53.9,22.3-53.9"/>
				</g>
			</g>
			<g>
				<g>
					
						<path fill="none" stroke="#000000" stroke-width="2" stroke-linecap="round" stroke-linejoin="round" stroke-miterlimit="10" d="
						M745.1,1c23.2,0-1.8,53.9,22.3,53.9c20.9,0,5.7-37.6,24.2-37.6c18.5,0,3.2,76.3,24.2,76.3c24.2,0-0.9-92.7,22.3-92.7
						c23.2,0-1.8,92.7,22.3,92.7c20.9,0,5.7-76.3,24.2-76.3c18.5,0,3.2,37.6,24.2,37.6C932.9,54.9,907.8,1,931,1"/>
				</g>
			</g>
			<g>
				<g>
					
						<path fill="none" stroke="#000000" stroke-width="2" stroke-linecap="round" stroke-linejoin="round" stroke-miterlimit="10" d="
						M558.8,1c23.2,0-1.8,53.9,22.3,53.9c20.9,0,5.7-37.6,24.2-37.6c18.5,0,3.2,76.3,24.2,76.3c24.2,0-0.9-92.7,22.3-92.7
						c23.2,0-1.8,92.7,22.3,92.7c20.9,0,5.7-76.3,24.2-76.3c18.5,0,3.2,37.6,24.2,37.6c24.2,0-0.9-53.9,22.3-53.9"/>
				</g>
			</g>
		</g>
	</g>
	<g>
		<g>
			<g>
				<g>
					
						<path fill="none" stroke="#000000" stroke-width="2" stroke-linecap="round" stroke-linejoin="round" stroke-miterlimit="10" d="
						M931.1,243.6c29.1,0,17.4,52.8,46.5,52.8c29.1,0,17.4-52.8,46.5-52.8c29.1,0,17.4,52.8,46.5,52.8c29.1,0,17.4-52.8,46.5-52.8"
						/>
					
						<polyline fill="none" stroke="#000000" stroke-width="2" stroke-linecap="round" stroke-linejoin="round" stroke-miterlimit="10" points="
						1117,181.7 1067.3,260.6 1024,198.7 980.7,260.6 931.1,181.7 					"/>
				</g>
			</g>
			<g>
				<g>
					
						<path fill="none" stroke="#000000" stroke-width="2" stroke-linecap="round" stroke-linejoin="round" stroke-miterlimit="10" d="
						M745.1,243.6c29.1,0,17.4,52.8,46.5,52.8c29.1,0,17.4-52.8,46.5-52.8c29.1,0,17.4,52.8,46.5,52.8s17.4-52.8,46.5-52.8"/>
					
						<polyline fill="none" stroke="#000000" stroke-width="2" stroke-linecap="round" stroke-linejoin="round" stroke-miterlimit="10" points="
						931,181.7 881.4,260.6 838,198.7 794.7,260.6 745.1,181.7 					"/>
				</g>
			</g>
			<g>
				<g>
					
						<path fill="none" stroke="#000000" stroke-width="2" stroke-linecap="round" stroke-linejoin="round" stroke-miterlimit="10" d="
						M558.8,243.6c29.1,0,17.4,52.8,46.5,52.8c29.1,0,17.4-52.8,46.5-52.8c29.1,0,17.4,52.8,46.5,52.8c29.1,0,17.4-52.8,46.5-52.8"
						/>
					
						<polyline fill="none" stroke="#000000" stroke-width="2" stroke-linecap="round" stroke-linejoin="round" stroke-miterlimit="10" points="
						744.7,181.7 695,260.6 651.7,198.7 608.4,260.6 558.8,181.7 					"/>
				</g>
			</g>
			<g>
				<g>
					<g>
						
							<polyline fill="none" stroke="#000000" stroke-width="2" stroke-linecap="round" stroke-linejoin="round" stroke-miterlimit="10" points="
							1117,71.3 1065.7,235.2 1024,141.7 982.3,235.2 931.1,71.3 						"/>
					</g>
					
						<path fill="none" stroke="#000000" stroke-width="2" stroke-linecap="round" stroke-linejoin="round" stroke-miterlimit="10" d="
						M1117,157.1c4.9,0,8.8-4,8.8-8.9c0-2.1-0.7-4.1-2-5.6l-6.4-7.8l-32.3-39.3v0l-33.5,45.3l-2.3,3.2c-1,1.4-1.4,3.2-1.4,5
						c0,4.7,3.8,8.6,8.6,8.6c4.7,0,8.6-3.8,8.6-8.6c0-1.8-0.6-3.5-1.5-4.9l-0.6-0.9l-38.8-47.3l-38.8,47.3l-0.6,0.9
						c-1,1.4-1.5,3.1-1.5,4.9c0,4.7,3.8,8.6,8.6,8.6c4.7,0,8.6-3.8,8.6-8.6c0-1.8-0.5-3.6-1.5-5l-2.3-3.2L963,95.5v0l-32.3,39.3
						l-6.4,7.8c-1.2,1.5-2,3.5-2,5.6c0,4.9,3.9,8.9,8.8,8.9"/>
				</g>
				<g>
					<g>
						
							<polyline fill="none" stroke="#000000" stroke-width="2" stroke-linecap="round" stroke-linejoin="round" stroke-miterlimit="10" points="
							931,71.3 879.7,235.2 838.1,141.7 796.4,235.2 745.1,71.3 						"/>
					</g>
					
						<path fill="none" stroke="#000000" stroke-width="2" stroke-linecap="round" stroke-linejoin="round" stroke-miterlimit="10" d="
						M931,157.1c4.9,0,8.8-4,8.8-8.9c0-2.1-0.7-4.1-2-5.6l-6.4-7.8l-32.3-39.3v0l-33.5,45.3l-2.3,3.2c-1,1.4-1.4,3.2-1.4,5
						c0,4.7,3.8,8.6,8.6,8.6s8.6-3.8,8.6-8.6c0-1.8-0.6-3.5-1.5-4.9l-0.6-0.9l-38.8-47.3l-38.8,47.3l-0.6,0.9
						c-1,1.4-1.5,3.1-1.5,4.9c0,4.7,3.8,8.6,8.6,8.6s8.6-3.8,8.6-8.6c0-1.8-0.5-3.6-1.5-5l-2.3-3.2L777,95.5v0l-32.3,39.3l-6.4,7.8
						c-1.2,1.5-2,3.5-2,5.6c0,4.9,3.9,8.9,8.8,8.9"/>
				</g>
				<g>
					<g>
						
							<polyline fill="none" stroke="#000000" stroke-width="2" stroke-linecap="round" stroke-linejoin="round" stroke-miterlimit="10" points="
							744.7,71.3 693.4,235.2 651.7,141.7 610,235.2 558.8,71.3 						"/>
					</g>
					
						<path fill="none" stroke="#000000" stroke-width="2" stroke-linecap="round" stroke-linejoin="round" stroke-miterlimit="10" d="
						M744.7,157.1c4.9,0,8.8-4,8.8-8.9c0-2.1-0.7-4.1-2-5.6l-6.4-7.8l-32.3-39.3v0l-33.5,45.3l-2.3,3.2c-1,1.4-1.4,3.2-1.4,5
						c0,4.7,3.8,8.6,8.6,8.6s8.6-3.8,8.6-8.6c0-1.8-0.6-3.5-1.5-4.9l-0.6-0.9l-38.8-47.3l-38.8,47.3l-0.6,0.9
						c-1,1.4-1.5,3.1-1.5,4.9c0,4.7,3.8,8.6,8.6,8.6c4.7,0,8.6-3.8,8.6-8.6c0-1.8-0.5-3.6-1.5-5l-2.3-3.2l-33.5-45.3v0l-32.3,39.3
						l-6.4,7.8c-1.2,1.5-2,3.5-2,5.6c0,4.9,3.9,8.9,8.8,8.9"/>
				</g>
			</g>
		</g>
	</g>
</g>
<g>
	<g>
		<g>
			<g>
				<g>
					
						<path fill="none" stroke="#000000" stroke-width="2" stroke-linecap="round" stroke-linejoin="round" stroke-miterlimit="10" d="
						M-185.8,1c23.2,0-1.8,53.9,22.3,53.9c20.9,0,5.7-37.6,24.2-37.6s3.2,76.3,24.2,76.3C-91,93.7-116.1,1-92.8,1
						c23.2,0-1.8,92.7,22.3,92.7c20.9,0,5.7-76.3,24.2-76.3s3.2,37.6,24.2,37.6C2,54.9-23.1,1,0.2,1"/>
				</g>
			</g>
			<g>
				<g>
					
						<path fill="none" stroke="#000000" stroke-width="2" stroke-linecap="round" stroke-linejoin="round" stroke-miterlimit="10" d="
						M-371.8,1c23.2,0-1.8,53.9,22.3,53.9c20.9,0,5.7-37.6,24.2-37.6c18.5,0,3.2,76.3,24.2,76.3c24.2,0-0.9-92.7,22.3-92.7
						c23.2,0-1.8,92.7,22.3,92.7c20.9,0,5.7-76.3,24.2-76.3s3.2,37.6,24.2,37.6c24.2,0-0.9-53.9,22.3-53.9"/>
				</g>
			</g>
			<g>
				<g>
					
						<path fill="none" stroke="#000000" stroke-width="2" stroke-linecap="round" stroke-linejoin="round" stroke-miterlimit="10" d="
						M-558.1,1c23.2,0-1.8,53.9,22.3,53.9c20.9,0,5.7-37.6,24.2-37.6c18.5,0,3.2,76.3,24.2,76.3c24.2,0-0.9-92.7,22.3-92.7
						c23.2,0-1.8,92.7,22.3,92.7c20.9,0,5.7-76.3,24.2-76.3c18.5,0,3.2,37.6,24.2,37.6c24.2,0-0.9-53.9,22.3-53.9"/>
				</g>
			</g>
		</g>
	</g>
	<g>
		<g>
			<g>
				<g>
					
						<path fill="none" stroke="#000000" stroke-width="2" stroke-linecap="round" stroke-linejoin="round" stroke-miterlimit="10" d="
						M-185.8,243.6c29.1,0,17.4,52.8,46.5,52.8c29.1,0,17.4-52.8,46.5-52.8c29.1,0,17.4,52.8,46.5,52.8s17.4-52.8,46.5-52.8"/>
					
						<polyline fill="none" stroke="#000000" stroke-width="2" stroke-linecap="round" stroke-linejoin="round" stroke-miterlimit="10" points="
						0.2,181.7 -49.5,260.6 -92.8,198.7 -136.1,260.6 -185.8,181.7 					"/>
				</g>
			</g>
			<g>
				<g>
					
						<path fill="none" stroke="#000000" stroke-width="2" stroke-linecap="round" stroke-linejoin="round" stroke-miterlimit="10" d="
						M-371.8,243.6c29.1,0,17.4,52.8,46.5,52.8c29.1,0,17.4-52.8,46.5-52.8c29.1,0,17.4,52.8,46.5,52.8s17.4-52.8,46.5-52.8"/>
					
						<polyline fill="none" stroke="#000000" stroke-width="2" stroke-linecap="round" stroke-linejoin="round" stroke-miterlimit="10" points="
						-185.8,181.7 -235.5,260.6 -278.8,198.7 -322.1,260.6 -371.8,181.7 					"/>
				</g>
			</g>
			<g>
				<g>
					
						<path fill="none" stroke="#000000" stroke-width="2" stroke-linecap="round" stroke-linejoin="round" stroke-miterlimit="10" d="
						M-558.1,243.6c29.1,0,17.4,52.8,46.5,52.8c29.1,0,17.4-52.8,46.5-52.8c29.1,0,17.4,52.8,46.5,52.8c29.1,0,17.4-52.8,46.5-52.8"
						/>
					
						<polyline fill="none" stroke="#000000" stroke-width="2" stroke-linecap="round" stroke-linejoin="round" stroke-miterlimit="10" points="
						-372.1,181.7 -421.8,260.6 -465.1,198.7 -508.4,260.6 -558.1,181.7 					"/>
				</g>
			</g>
			<g>
				<g>
					<g>
						
							<polyline fill="none" stroke="#000000" stroke-width="2" stroke-linecap="round" stroke-linejoin="round" stroke-miterlimit="10" points="
							0.2,71.3 -51.1,235.2 -92.8,141.7 -134.5,235.2 -185.8,71.3 						"/>
					</g>
					
						<path fill="none" stroke="#000000" stroke-width="2" stroke-linecap="round" stroke-linejoin="round" stroke-miterlimit="10" d="
						M0.2,157.1c4.9,0,8.8-4,8.8-8.9c0-2.1-0.7-4.1-2-5.6l-6.4-7.8l-32.3-39.3v0l-33.5,45.3l-2.3,3.2c-1,1.4-1.4,3.2-1.4,5
						c0,4.7,3.8,8.6,8.6,8.6s8.6-3.8,8.6-8.6c0-1.8-0.6-3.5-1.5-4.9l-0.6-0.9l-38.8-47.3l-38.8,47.3l-0.6,0.9
						c-1,1.4-1.5,3.1-1.5,4.9c0,4.7,3.8,8.6,8.6,8.6c4.7,0,8.6-3.8,8.6-8.6c0-1.8-0.5-3.6-1.5-5l-2.3-3.2l-33.5-45.3v0l-32.3,39.3
						l-6.4,7.8c-1.2,1.5-2,3.5-2,5.6c0,4.9,3.9,8.9,8.8,8.9"/>
				</g>
				<g>
					<g>
						
							<polyline fill="none" stroke="#000000" stroke-width="2" stroke-linecap="round" stroke-linejoin="round" stroke-miterlimit="10" points="
							-185.8,71.3 -237.1,235.2 -278.8,141.7 -320.5,235.2 -371.8,71.3 						"/>
					</g>
					
						<path fill="none" stroke="#000000" stroke-width="2" stroke-linecap="round" stroke-linejoin="round" stroke-miterlimit="10" d="
						M-185.8,157.1c4.9,0,8.8-4,8.8-8.9c0-2.1-0.7-4.1-2-5.6l-6.4-7.8l-32.3-39.3v0l-33.5,45.3l-2.3,3.2c-1,1.4-1.4,3.2-1.4,5
						c0,4.7,3.8,8.6,8.6,8.6c4.7,0,8.6-3.8,8.6-8.6c0-1.8-0.6-3.5-1.5-4.9l-0.6-0.9l-38.8-47.3l-38.8,47.3l-0.6,0.9
						c-1,1.4-1.5,3.1-1.5,4.9c0,4.7,3.8,8.6,8.6,8.6s8.6-3.8,8.6-8.6c0-1.8-0.5-3.6-1.5-5l-2.3-3.2l-33.5-45.3v0l-32.3,39.3
						l-6.4,7.8c-1.2,1.5-2,3.5-2,5.6c0,4.9,3.9,8.9,8.8,8.9"/>
				</g>
				<g>
					<g>
						
							<polyline fill="none" stroke="#000000" stroke-width="2" stroke-linecap="round" stroke-linejoin="round" stroke-miterlimit="10" points="
							-372.1,71.3 -423.4,235.2 -465.1,141.7 -506.8,235.2 -558.1,71.3 						"/>
					</g>
					
						<path fill="none" stroke="#000000" stroke-width="2" stroke-linecap="round" stroke-linejoin="round" stroke-miterlimit="10" d="
						M-372.1,157.1c4.9,0,8.8-4,8.8-8.9c0-2.1-0.7-4.1-2-5.6l-6.4-7.8L-404,95.5v0l-33.5,45.3l-2.3,3.2c-1,1.4-1.4,3.2-1.4,5
						c0,4.7,3.8,8.6,8.6,8.6c4.7,0,8.6-3.8,8.6-8.6c0-1.8-0.6-3.5-1.5-4.9l-0.6-0.9l-38.8-47.3l-38.8,47.3l-0.6,0.9
						c-1,1.4-1.5,3.1-1.5,4.9c0,4.7,3.8,8.6,8.6,8.6c4.7,0,8.6-3.8,8.6-8.6c0-1.8-0.5-3.6-1.5-5l-2.3-3.2l-33.5-45.3v0l-32.3,39.3
						l-6.4,7.8c-1.2,1.5-2,3.5-2,5.6c0,4.9,3.9,8.9,8.8,8.9"/>
				</g>
			</g>
		</g>
	</g>
</g>
</svg>
