<?xml version="1.0" encoding="utf-8"?>
<!-- Generator: Adobe Illustrator 16.0.3, SVG Export Plug-In . SVG Version: 6.00 Build 0)  -->
<!DOCTYPE svg PUBLIC "-//W3C//DTD SVG 1.1//EN" "http://www.w3.org/Graphics/SVG/1.1/DTD/svg11.dtd">
<svg version="1.1" id="Layer_1" xmlns="http://www.w3.org/2000/svg" xmlns:xlink="http://www.w3.org/1999/xlink" x="0px" y="0px"
	 width="841.89px" height="595.28px" viewBox="0 0 841.89 595.28" enable-background="new 0 0 841.89 595.28" xml:space="preserve">
<g>
	<path fill="#000319" d="M343.745,337.439L343.745,337.439l5.507-23.139h5.747l-7.805,31.417h-6.761l-5.363-21.307l-5.411,21.307
		h-6.732l-7.806-31.417h5.986l5.576,23.089l5.843-23.089h5.33L343.745,337.439z"/>
	<path fill="#000319" d="M381.355,338.237c0.335,2.643,2.251,3.989,5.172,3.989c2.106,0,3.83-0.748,3.83-2.344
		c0-1.496-0.957-2.145-3.064-2.493l-3.352-0.599c-4.501-0.748-6.991-2.493-6.991-6.583c0-4.188,3.399-7.081,8.763-7.081
		c5.842,0,9.337,2.743,9.721,7.63l-4.74,0.199c-0.383-2.493-2.011-3.74-5.029-3.74c-2.059,0-3.399,0.948-3.399,2.444
		c0,1.196,0.766,1.895,2.299,2.144l4.022,0.698c4.454,0.748,7.087,2.693,7.087,6.832c0,4.488-3.735,6.981-9.194,6.981
		c-5.507,0-9.721-2.493-10.104-7.879L381.355,338.237z"/>
	<path fill="#000319" d="M504.128,314.301v31.417h-5.747v-31.417H504.128z"/>
	<g>
		<path fill="#000319" d="M495.105,342.077c-0.91,0-1.485-0.549-1.485-1.696v-8.776c0-5.785-3.591-8.478-9.051-8.478
			c-5.603,0-8.906,3.142-9.624,7.63l5.22,0.499c0.479-2.145,1.771-3.641,4.166-3.641c2.441,0,3.687,1.496,3.687,3.939v0.684
			l-5.794,1.012c-4.789,0.997-8.045,2.743-8.045,6.932c0,3.79,2.682,6.084,7.087,6.084c3.112,0,6.522-1.608,7.184-3.119
			c0.403,1.634,2.059,3.069,4.453,3.069c1.227,0,2.138-0.181,2.874-0.507v-3.707C495.551,342.048,495.327,342.077,495.105,342.077z
			 M488.018,336.192c0,3.541-2.298,5.935-5.314,5.935c-1.82,0-2.922-0.898-2.922-2.394c0-2.194,1.771-2.644,4.262-3.192l3.975-0.731
			V336.192z"/>
	</g>
	<g>
		<path fill="#000319" d="M407.879,341.528c-1.724,0-2.538-0.848-2.538-2.743v-10.871h4.589v-4.188h-4.589v-6.084h-3.987
			c0,0-0.061,1.918-0.356,2.992c-0.296,1.073-0.876,3.142-2.936,3.49l-1.437,0.249v3.541h3.017v12.218
			c0,4.688,2.729,6.184,5.986,6.184c1.767,0,3.126-0.332,4.302-0.92v-4.273C409.231,341.366,408.545,341.528,407.879,341.528z"/>
	</g>
	<g>
		<path fill="#000319" d="M447.018,323.26c-2.921,0-5.062,2.024-5.89,3.984v-3.519h-5.747v21.991h5.747v-10.871
			c0-3.989,2.011-6.184,4.98-6.184c0.94,0,1.681,0.15,2.404,0.44l1.207-5.128C449.083,323.538,448.152,323.26,447.018,323.26z"/>
	</g>
	<g>
		<path fill="#000319" d="M364.288,341.777c-3.113,0-5.554-2.294-5.746-5.535h15.85v-2.145c0-5.984-3.543-10.971-10.439-10.971
			c-6.321,0-11.062,4.986-11.062,11.918s4.693,11.271,11.206,11.271c5.111,0,8.638-2.583,9.942-6.986l-4.584-0.914
			C368.595,340.647,366.96,341.777,364.288,341.777z M363.905,327.516c3.208,0,4.692,2.443,4.884,4.986h-10.152
			C359.165,329.76,360.745,327.516,363.905,327.516z"/>
	</g>
	<g>
		<path fill="#000319" d="M422.482,341.777c-3.112,0-5.554-2.294-5.746-5.535h15.85v-2.145c0-5.984-3.543-10.971-10.439-10.971
			c-6.321,0-11.062,4.986-11.062,11.918s4.693,11.271,11.205,11.271c5.111,0,8.639-2.583,9.943-6.986l-4.585-0.914
			C426.79,340.647,425.155,341.777,422.482,341.777z M422.1,327.516c3.208,0,4.693,2.443,4.885,4.986h-10.152
			C417.359,329.76,418.939,327.516,422.1,327.516z"/>
	</g>
	<path fill="#000319" d="M511.953,338.237c0.335,2.643,2.251,3.989,5.172,3.989c2.107,0,3.83-0.748,3.83-2.344
		c0-1.496-0.957-2.145-3.064-2.493l-3.352-0.599c-4.501-0.748-6.991-2.493-6.991-6.583c0-4.188,3.399-7.081,8.763-7.081
		c5.843,0,9.338,2.743,9.721,7.63l-4.74,0.199c-0.383-2.493-2.011-3.74-5.028-3.74c-2.059,0-3.399,0.948-3.399,2.444
		c0,1.196,0.766,1.895,2.299,2.144l4.021,0.698c4.454,0.748,7.088,2.693,7.088,6.832c0,4.488-3.735,6.981-9.194,6.981
		c-5.508,0-9.721-2.493-10.104-7.879L511.953,338.237z"/>
	<path fill="#000319" d="M471.474,314.302h-4.934h-0.58v11.688c-1.583-1.777-3.81-2.854-6.671-2.854h-0.033
		c-6.277,0-9.536,5.14-9.536,11.628c0,6.486,3.257,11.575,9.531,11.577c2.852-0.001,5.092-1.002,6.709-2.675v2.076h5.75v-31.439
		H471.474z M460.974,341.654l0.008-0.005c-3.595,0-5.464-2.745-5.464-6.887c0-4.192,1.869-6.938,5.464-6.938l-0.008,0.006
		c3.259,0,5.607,2.495,5.607,6.487v0.849C466.581,339.209,464.232,341.654,460.974,341.654z"/>
</g>
<g>
	<path fill="#000319" d="M362.896,375.526c-3.007,0-5.115-2.174-5.115-5.345c0-3.17,2.108-5.344,5.115-5.344
		c2.99,0,5.115,2.174,5.115,5.344C368.011,373.353,365.887,375.526,362.896,375.526z M362.896,366.048
		c-2.223,0-3.661,1.617-3.661,4.134c0,2.518,1.438,4.135,3.661,4.135c2.222,0,3.644-1.617,3.644-4.135
		C366.541,367.665,365.119,366.048,362.896,366.048z"/>
	<path fill="#000319" d="M370.106,372.846c0.13,1.095,0.898,1.684,2.124,1.684c0.948,0,1.651-0.344,1.651-1.063
		c0-0.67-0.474-0.898-1.356-1.063l-1.209-0.212c-1.34-0.213-2.141-0.785-2.141-2.011c0-1.307,1.095-2.189,2.746-2.189
		c1.896,0,3.007,0.883,3.138,2.533l-1.095,0.065c-0.164-1.095-0.833-1.602-2.042-1.602c-0.899,0-1.487,0.408-1.487,1.063
		c0,0.571,0.359,0.865,1.095,0.996l1.34,0.213c1.438,0.245,2.288,0.784,2.288,2.075c0,1.422-1.258,2.19-2.925,2.19
		c-1.781,0-3.138-0.834-3.268-2.599L370.106,372.846z"/>
	<path fill="#000319" d="M377.919,365.034v10.296h-1.356v-10.296H377.919z"/>
	<path fill="#000319" d="M382.937,375.526c-2.092,0-3.628-1.536-3.628-3.759s1.536-3.775,3.628-3.775
		c2.108,0,3.661,1.553,3.661,3.775S385.044,375.526,382.937,375.526z M382.937,374.48c1.454,0,2.271-1.128,2.271-2.713
		c0-1.602-0.817-2.713-2.271-2.713c-1.438,0-2.239,1.111-2.239,2.713C380.697,373.353,381.498,374.48,382.937,374.48z"/>
	<path fill="#000319" d="M391.649,371.571c0.082,1.879,1.373,2.844,3.105,2.844c1.536,0,2.5-0.654,2.5-1.781
		c0-0.948-0.621-1.406-1.961-1.667l-2.042-0.393c-1.52-0.294-2.566-1.111-2.566-2.713c0-1.798,1.422-3.023,3.677-3.023
		c2.582,0,4.069,1.373,4.085,3.693l-1.291,0.065c-0.049-1.699-1.079-2.664-2.778-2.664c-1.487,0-2.32,0.703-2.32,1.847
		c0,1.014,0.67,1.341,1.863,1.569l1.863,0.359c1.879,0.359,2.828,1.177,2.828,2.827c0,1.896-1.634,2.991-3.857,2.991
		c-2.533,0-4.38-1.39-4.38-3.873L391.649,371.571z"/>
	<path fill="#000319" d="M403.385,367.992c2.092,0,3.219,1.405,3.366,3.121l-1.193,0.082c-0.114-1.259-0.866-2.108-2.19-2.108
		c-1.34,0-2.255,1.029-2.255,2.681c0,1.65,0.916,2.68,2.255,2.68c1.324,0,2.076-0.898,2.19-2.157l1.193,0.114
		c-0.147,1.732-1.274,3.122-3.366,3.122c-2.157,0-3.661-1.487-3.661-3.759S401.228,367.992,403.385,367.992z"/>
	<path fill="#000319" d="M409.499,375.33h-1.356v-10.296h1.356v4.429c0.343-0.866,1.307-1.471,2.37-1.471
		c1.863,0,2.615,1.242,2.615,2.909v4.429h-1.356v-4.314c0-1.193-0.572-1.945-1.7-1.945c-1.079,0-1.928,0.851-1.928,2.157V375.33z"/>
	<path fill="#000319" d="M419.42,375.526c-2.092,0-3.628-1.536-3.628-3.759s1.536-3.775,3.628-3.775c2.108,0,3.66,1.553,3.66,3.775
		S421.528,375.526,419.42,375.526z M419.42,374.48c1.454,0,2.271-1.128,2.271-2.713c0-1.602-0.817-2.713-2.271-2.713
		c-1.438,0-2.239,1.111-2.239,2.713C417.181,373.353,417.981,374.48,419.42,374.48z"/>
	<path fill="#000319" d="M427.707,375.526c-2.092,0-3.628-1.536-3.628-3.759s1.536-3.775,3.628-3.775c2.107,0,3.66,1.553,3.66,3.775
		S429.814,375.526,427.707,375.526z M427.707,374.48c1.454,0,2.271-1.128,2.271-2.713c0-1.602-0.817-2.713-2.271-2.713
		c-1.438,0-2.239,1.111-2.239,2.713C425.468,373.353,426.269,374.48,427.707,374.48z"/>
	<path fill="#000319" d="M434.131,365.034v10.296h-1.356v-10.296H434.131z"/>
	<path fill="#000319" d="M442.091,375.526c-2.092,0-3.628-1.536-3.628-3.759s1.536-3.775,3.628-3.775
		c2.108,0,3.661,1.553,3.661,3.775S444.199,375.526,442.091,375.526z M442.091,374.48c1.455,0,2.271-1.128,2.271-2.713
		c0-1.602-0.816-2.713-2.271-2.713c-1.438,0-2.238,1.111-2.238,2.713C439.853,373.353,440.653,374.48,442.091,374.48z"/>
	<path fill="#000319" d="M446.342,369.169v-0.98h1.095v-0.834c0-1.52,0.866-2.517,2.37-2.517c1.226,0,1.912,0.556,2.238,1.635
		l-0.931,0.326c-0.181-0.556-0.589-0.98-1.242-0.98c-0.752,0-1.095,0.54-1.095,1.39v0.98h2.01v0.98h-2.01v6.161h-1.341v-6.161
		H446.342z"/>
	<path fill="#000319" d="M459.776,365.034l4.282,10.296h-1.504l-1.242-3.023h-4.689l-1.21,3.023h-1.389l4.2-10.296H459.776z
		 M457.063,371.179h3.792l-1.88-4.575h-0.065L457.063,371.179z"/>
	<path fill="#000319" d="M469.454,369.545c-0.393-0.213-0.671-0.294-1.111-0.294c-1.03,0-1.798,0.931-1.798,2.304v3.775h-1.356
		v-7.142h1.356v1.454c0.262-0.817,0.997-1.65,2.026-1.65c0.441,0,0.768,0.114,1.013,0.327L469.454,369.545z"/>
	<path fill="#000319" d="M471.04,369.169h-1.079v-0.735l0.458-0.082c0.67-0.131,0.817-0.457,0.98-1.144l0.213-0.997h0.768v1.978
		h2.01v0.98h-2.01v4.33c0,0.638,0.262,0.932,0.883,0.932c0.457,0,0.932-0.195,1.34-0.425v0.915c-0.523,0.393-1.046,0.605-1.83,0.605
		c-1.014,0-1.732-0.475-1.732-1.863V369.169z"/>
	<path fill="#000319" d="M476.418,372.846c0.131,1.095,0.898,1.684,2.124,1.684c0.948,0,1.65-0.344,1.65-1.063
		c0-0.67-0.474-0.898-1.356-1.063l-1.209-0.212c-1.34-0.213-2.141-0.785-2.141-2.011c0-1.307,1.095-2.189,2.745-2.189
		c1.896,0,3.007,0.883,3.138,2.533l-1.095,0.065c-0.163-1.095-0.833-1.602-2.043-1.602c-0.898,0-1.487,0.408-1.487,1.063
		c0,0.571,0.36,0.865,1.096,0.996l1.34,0.213c1.438,0.245,2.288,0.784,2.288,2.075c0,1.422-1.259,2.19-2.926,2.19
		c-1.781,0-3.138-0.834-3.269-2.599L476.418,372.846z"/>
	<path fill="#000319" d="M482.598,373.695h1.634v1.602c0,1.145-0.326,1.814-1.634,1.831v-0.801c0.604-0.05,0.768-0.278,0.768-0.997
		h-0.768V373.695z"/>
	<path fill="#000319" d="M321.493,384.453c2.941,0,4.608,1.813,4.805,4.461l-1.373,0.065c-0.114-1.896-1.307-3.317-3.432-3.317
		c-2.092,0-3.595,1.602-3.595,4.135s1.503,4.135,3.595,4.135c2.125,0,3.317-1.422,3.432-3.317l1.373,0.065
		c-0.196,2.647-1.863,4.461-4.805,4.461c-2.844,0-5.05-2.174-5.05-5.344C316.443,386.626,318.649,384.453,321.493,384.453z"/>
	<path fill="#000319" d="M330.924,395.141c-2.092,0-3.628-1.536-3.628-3.759s1.536-3.774,3.628-3.774
		c2.108,0,3.661,1.552,3.661,3.774S333.032,395.141,330.924,395.141z M330.924,394.095c1.454,0,2.271-1.128,2.271-2.713
		c0-1.602-0.817-2.713-2.271-2.713c-1.438,0-2.239,1.111-2.239,2.713C328.685,392.967,329.486,394.095,330.924,394.095z"/>
	<path fill="#000319" d="M344.359,387.607c1.863,0,2.517,1.291,2.517,2.908v4.429h-1.356v-4.314c0-1.192-0.49-1.944-1.585-1.944
		c-1.014,0-1.831,0.85-1.831,2.157v4.102h-1.356v-4.314c0-1.192-0.49-1.944-1.585-1.944c-1.013,0-1.814,0.85-1.814,2.157v4.102
		h-1.356v-7.142h1.356v1.275c0.343-0.866,1.176-1.471,2.271-1.471c1.274,0,2.026,0.62,2.337,1.552
		C342.333,388.277,343.215,387.607,344.359,387.607z"/>
	<path fill="#000319" d="M357.027,387.607c1.863,0,2.517,1.291,2.517,2.908v4.429h-1.356v-4.314c0-1.192-0.49-1.944-1.585-1.944
		c-1.014,0-1.831,0.85-1.831,2.157v4.102h-1.356v-4.314c0-1.192-0.49-1.944-1.585-1.944c-1.013,0-1.814,0.85-1.814,2.157v4.102
		h-1.356v-7.142h1.356v1.275c0.343-0.866,1.176-1.471,2.271-1.471c1.274,0,2.026,0.62,2.337,1.552
		C355.001,388.277,355.883,387.607,357.027,387.607z"/>
	<path fill="#000319" d="M366.133,387.803h1.356v7.142h-1.356v-1.258c-0.343,0.85-1.259,1.454-2.337,1.454
		c-1.863,0-2.55-1.226-2.55-2.893v-4.445h1.356v4.314c0,1.193,0.523,1.961,1.651,1.961c1.062,0,1.879-0.85,1.879-2.173V387.803z"/>
	<path fill="#000319" d="M370.71,394.944h-1.356v-7.142h1.356v1.275c0.343-0.866,1.307-1.471,2.37-1.471
		c1.863,0,2.615,1.241,2.615,2.908v4.429h-1.356v-4.314c0-1.192-0.572-1.944-1.7-1.944c-1.079,0-1.928,0.85-1.928,2.157V394.944z"/>
	<path fill="#000319" d="M377.429,384.649h1.405v1.536h-1.405V384.649z M378.818,387.803v7.142h-1.356v-7.142H378.818z"/>
	<path fill="#000319" d="M383.868,387.607c2.092,0,3.219,1.405,3.366,3.121l-1.193,0.081c-0.114-1.258-0.866-2.107-2.19-2.107
		c-1.34,0-2.255,1.029-2.255,2.68s0.916,2.681,2.255,2.681c1.324,0,2.076-0.899,2.19-2.157l1.193,0.114
		c-0.147,1.732-1.274,3.121-3.366,3.121c-2.157,0-3.661-1.487-3.661-3.759S381.711,387.607,383.868,387.607z"/>
	<path fill="#000319" d="M394.378,393.539c0,0.376,0.212,0.556,0.556,0.556c0.163,0,0.425-0.049,0.621-0.163v0.735
		c-0.245,0.245-0.539,0.425-1.095,0.425c-0.735,0-1.258-0.556-1.34-1.405c-0.393,0.833-1.406,1.454-2.566,1.454
		c-1.389,0-2.288-0.752-2.288-1.978c0-1.356,1.161-1.912,2.876-2.255l1.928-0.393v-0.277c0-0.98-0.572-1.585-1.569-1.585
		c-1.029,0-1.585,0.604-1.797,1.438l-1.209-0.163c0.278-1.34,1.34-2.32,3.023-2.32c1.797,0,2.86,0.915,2.86,2.729V393.539z
		 M393.07,391.415l-1.602,0.343c-1.127,0.245-1.847,0.458-1.847,1.324c0,0.604,0.409,1.062,1.226,1.062
		c1.259,0,2.223-0.947,2.223-2.386V391.415z"/>
	<path fill="#000319" d="M396.782,388.783h-1.079v-0.735l0.458-0.081c0.67-0.131,0.817-0.458,0.98-1.145l0.212-0.997h0.768v1.978
		h2.01v0.98h-2.01v4.331c0,0.638,0.262,0.932,0.883,0.932c0.458,0,0.931-0.196,1.34-0.425v0.915
		c-0.523,0.393-1.046,0.604-1.831,0.604c-1.013,0-1.732-0.474-1.732-1.863V388.783z"/>
	<path fill="#000319" d="M401.506,384.649h1.405v1.536h-1.405V384.649z M402.896,387.803v7.142h-1.356v-7.142H402.896z"/>
	<path fill="#000319" d="M407.913,395.141c-2.092,0-3.628-1.536-3.628-3.759s1.536-3.774,3.628-3.774
		c2.108,0,3.661,1.552,3.661,3.774S410.021,395.141,407.913,395.141z M407.913,394.095c1.454,0,2.271-1.128,2.271-2.713
		c0-1.602-0.817-2.713-2.271-2.713c-1.438,0-2.239,1.111-2.239,2.713C405.674,392.967,406.475,394.095,407.913,394.095z"/>
	<path fill="#000319" d="M414.337,394.944h-1.356v-7.142h1.356v1.275c0.343-0.866,1.307-1.471,2.37-1.471
		c1.863,0,2.615,1.241,2.615,2.908v4.429h-1.356v-4.314c0-1.192-0.572-1.944-1.7-1.944c-1.079,0-1.928,0.85-1.928,2.157V394.944z"/>
	<path fill="#000319" d="M429.782,393.539c0,0.376,0.213,0.556,0.556,0.556c0.163,0,0.425-0.049,0.621-0.163v0.735
		c-0.245,0.245-0.539,0.425-1.095,0.425c-0.735,0-1.259-0.556-1.34-1.405c-0.393,0.833-1.406,1.454-2.566,1.454
		c-1.389,0-2.288-0.752-2.288-1.978c0-1.356,1.161-1.912,2.877-2.255l1.928-0.393v-0.277c0-0.98-0.571-1.585-1.568-1.585
		c-1.029,0-1.585,0.604-1.798,1.438l-1.209-0.163c0.277-1.34,1.34-2.32,3.023-2.32c1.797,0,2.859,0.915,2.859,2.729V393.539z
		 M428.475,391.415l-1.602,0.343c-1.127,0.245-1.847,0.458-1.847,1.324c0,0.604,0.409,1.062,1.226,1.062
		c1.259,0,2.223-0.947,2.223-2.386V391.415z"/>
	<path fill="#000319" d="M433.38,394.944h-1.356v-7.142h1.356v1.275c0.343-0.866,1.308-1.471,2.369-1.471
		c1.863,0,2.615,1.241,2.615,2.908v4.429h-1.356v-4.314c0-1.192-0.572-1.944-1.7-1.944c-1.078,0-1.928,0.85-1.928,2.157V394.944z"/>
	<path fill="#000319" d="M445.507,393.457c-0.326,0.883-1.226,1.684-2.565,1.684c-2.124,0-3.269-1.65-3.269-3.759
		s1.145-3.774,3.269-3.774c1.34,0,2.239,0.816,2.565,1.699v-4.657h1.356v10.295h-1.356V393.457z M445.523,391.17
		c0-1.553-0.98-2.468-2.271-2.468c-1.405,0-2.189,1.046-2.189,2.68c0,1.635,0.784,2.681,2.189,2.681
		c1.291,0,2.271-0.916,2.271-2.484V391.17z"/>
	<path fill="#000319" d="M454.809,394.944v-9.119h-3.743v-1.176h8.956v1.176h-3.808v9.119H454.809z"/>
	<path fill="#000319" d="M466.412,392.542c-0.359,1.618-1.552,2.599-3.333,2.599c-2.125,0-3.678-1.438-3.678-3.66
		c0-2.256,1.553-3.873,3.612-3.873c2.271,0,3.432,1.617,3.432,3.563v0.539h-5.688c0.065,1.389,1.063,2.369,2.337,2.369
		c1.193,0,1.896-0.571,2.19-1.667L466.412,392.542z M465.056,390.826c-0.049-1.144-0.686-2.189-2.042-2.189
		c-1.291,0-2.06,1.013-2.223,2.189H465.056z"/>
	<path fill="#000319" d="M471.104,387.607c2.092,0,3.219,1.405,3.366,3.121l-1.193,0.081c-0.114-1.258-0.865-2.107-2.189-2.107
		c-1.34,0-2.255,1.029-2.255,2.68s0.915,2.681,2.255,2.681c1.324,0,2.075-0.899,2.189-2.157l1.193,0.114
		c-0.147,1.732-1.274,3.121-3.366,3.121c-2.157,0-3.661-1.487-3.661-3.759S468.947,387.607,471.104,387.607z"/>
	<path fill="#000319" d="M477.218,394.944h-1.356v-10.295h1.356v4.429c0.343-0.866,1.308-1.471,2.369-1.471
		c1.863,0,2.615,1.241,2.615,2.908v4.429h-1.356v-4.314c0-1.192-0.572-1.944-1.7-1.944c-1.078,0-1.928,0.85-1.928,2.157V394.944z"/>
	<path fill="#000319" d="M485.325,394.944h-1.356v-7.142h1.356v1.275c0.343-0.866,1.308-1.471,2.369-1.471
		c1.863,0,2.615,1.241,2.615,2.908v4.429h-1.356v-4.314c0-1.192-0.572-1.944-1.7-1.944c-1.078,0-1.928,0.85-1.928,2.157V394.944z"/>
	<path fill="#000319" d="M495.246,395.141c-2.092,0-3.628-1.536-3.628-3.759s1.536-3.774,3.628-3.774
		c2.108,0,3.661,1.552,3.661,3.774S497.354,395.141,495.246,395.141z M495.246,394.095c1.455,0,2.271-1.128,2.271-2.713
		c0-1.602-0.816-2.713-2.271-2.713c-1.438,0-2.238,1.111-2.238,2.713C493.008,392.967,493.809,394.095,495.246,394.095z"/>
	<path fill="#000319" d="M501.671,384.649v10.295h-1.356v-10.295H501.671z"/>
	<path fill="#000319" d="M506.688,395.141c-2.092,0-3.628-1.536-3.628-3.759s1.536-3.774,3.628-3.774
		c2.108,0,3.661,1.552,3.661,3.774S508.797,395.141,506.688,395.141z M506.688,394.095c1.455,0,2.271-1.128,2.271-2.713
		c0-1.602-0.816-2.713-2.271-2.713c-1.438,0-2.238,1.111-2.238,2.713C504.45,392.967,505.251,394.095,506.688,394.095z"/>
	<path fill="#000319" d="M514.616,392.461c-0.588,0-1.127-0.099-1.568-0.295c-0.245,0.147-0.474,0.376-0.474,0.703
		c0,0.393,0.245,0.621,0.865,0.621h2.795c1.553,0,2.37,0.817,2.37,1.929c0,1.781-1.994,2.467-4.118,2.467
		c-1.929,0-3.53-0.604-3.53-1.928c0-0.817,0.588-1.34,1.471-1.504c-0.653-0.212-0.948-0.687-0.948-1.226
		c0-0.621,0.441-1.063,1.079-1.34c-0.589-0.425-0.932-1.063-0.932-1.847c0-1.504,1.242-2.435,2.99-2.435
		c0.899,0,1.7,0.277,2.239,0.735c0.376-0.572,1.046-0.981,1.814-0.981v1.177c-0.475,0-1.014,0.115-1.373,0.295
		c0.212,0.343,0.343,0.751,0.343,1.209C517.64,391.529,516.382,392.461,514.616,392.461z M514.486,396.987
		c1.634,0,2.811-0.393,2.811-1.422c0-0.653-0.539-0.883-1.373-0.883h-2.304c-0.735,0-1.373,0.246-1.373,1.014
		C512.247,396.595,513.162,396.987,514.486,396.987z M514.633,388.489c-0.997,0-1.618,0.556-1.618,1.569
		c0,0.98,0.621,1.536,1.618,1.536c1.014,0,1.635-0.556,1.635-1.536C516.268,389.045,515.646,388.489,514.633,388.489z"/>
	<path fill="#000319" d="M520.632,397.69l1.16-2.762l-3.007-7.126h1.422l2.271,5.491h0.065l2.189-5.491h1.341l-4.118,9.888H520.632z
		"/>
</g>
<g>
	<polygon fill="#020202" points="448.067,287.556 448.067,280.44 445.17,280.44 445.17,278.563 453.099,278.563 453.099,280.44 
		450.162,280.44 450.162,287.556 	"/>
	<g>
		<path fill="#020202" d="M420.717,285.759c-1.325,0-2.181-1.06-2.181-2.7c0-1.64,0.856-2.7,2.181-2.7c0.834,0,1.459,0.375,1.82,1.1
			l1.951-0.667c-0.611-1.526-1.94-2.392-3.771-2.392c-2.515,0-4.341,1.96-4.341,4.659c0,2.7,1.826,4.66,4.341,4.66
			c1.786,0,3.095-0.82,3.725-2.274l-1.946-0.69C422.143,285.403,421.53,285.759,420.717,285.759z"/>
	</g>
	<path fill="#F27064" d="M441.647,259.107c-7.837,0-10.141-6.929-12.172-13.042c-2.192-6.595-3.877-10.599-8.784-10.599
		c-4.906,0-6.59,4.004-8.781,10.598c-2.032,6.114-4.334,13.043-12.171,13.043s-10.139-6.929-12.171-13.043
		c-2.19-6.594-3.875-10.598-8.781-10.598c-0.986,0-1.786-0.799-1.786-1.786c0-0.986,0.8-1.786,1.786-1.786
		c7.836,0,10.139,6.93,12.171,13.043c2.19,6.594,3.875,10.598,8.781,10.598s6.59-4.004,8.781-10.598
		c2.032-6.114,4.334-13.043,12.171-13.043c7.837,0,10.141,6.93,12.172,13.043c2.192,6.594,3.877,10.598,8.783,10.598
		s6.591-4.004,8.783-10.598c2.032-6.114,4.335-13.043,12.173-13.043c0.985,0,1.785,0.799,1.785,1.786c0,0.987-0.8,1.786-1.785,1.786
		c-4.906,0-6.592,4.004-8.784,10.598C451.787,252.178,449.484,259.107,441.647,259.107z"/>
	<path fill="#FFD167" d="M435.104,268.408c-1.188,0.229-2.095,0.084-2.803-0.381c-2.169-1.426-2.558-5.463-3.181-9.446l0.004-0.001
		c-0.902-5.77-2.024-12.95-8.423-12.95c-0.003,0-0.006,0-0.007,0c-6.398,0-7.522,7.18-8.424,12.949
		c-0.623,3.983-1.011,8.02-3.181,9.446c-0.708,0.465-1.615,0.61-2.802,0.381c-3.95-0.808-4.417-6.282-4.679-14.541
		c-0.27-8.476-0.574-18.083-9.443-18.083c-0.986,0-1.786,0.8-1.786,1.786c0,0.986,0.8,1.786,1.786,1.786
		c5.045,0,5.584,5.525,5.873,14.624c0.246,7.731,0.523,16.494,7.553,17.931c0.616,0.12,1.208,0.179,1.774,0.179
		c1.432,0,2.698-0.381,3.778-1.14c3.155-2.215,3.918-7.097,4.657-11.817c0.966-6.178,1.778-9.929,4.897-9.929
		c0.002,0,0.002,0,0.004,0c3.118,0,3.93,3.752,4.896,9.93c0.738,4.72,1.502,9.602,4.656,11.817c1.508,1.059,3.376,1.382,5.57,0.958
		c7.012-1.434,7.289-10.196,7.534-17.928c0.288-9.099,0.827-14.624,5.872-14.624c0.986,0,1.786-0.8,1.786-1.786
		c0-0.986-0.8-1.786-1.786-1.786c-8.869,0-9.174,9.606-9.442,18.082c-0.262,8.26-0.729,13.734-4.66,14.538L435.104,268.408z"/>
	<path fill="#7EC49A" d="M451.053,259.641c-0.828-0.536-1.934-0.299-2.47,0.529l-13.513,20.884l-12.86-15.562l-0.848-1.023
		c-0.159-0.192-0.398-0.314-0.667-0.314c-0.269,0-0.509,0.123-0.668,0.316l-0.602,0.725l-13.104,15.858l-13.513-20.884
		c-0.536-0.828-1.642-1.065-2.47-0.529c-0.828,0.536-1.064,1.642-0.529,2.47l14.125,21.831l-2.504,3.031l-0.381,0.536
		c-0.664,0.952-1.018,2.08-1.024,3.262c-0.009,1.526,0.582,2.965,1.663,4.053c1.096,1.102,2.555,1.708,4.112,1.708v-0.001
		c3.158-0.014,5.722-2.587,5.722-5.749c0-1.108-0.316-2.185-0.919-3.12l-2.249-3.461l12.34-14.932l12.339,14.932l-2.253,3.468
		c-0.598,0.929-0.914,2.005-0.914,3.113c0,3.162,2.564,5.735,5.723,5.749v0.001c1.557,0,3.017-0.606,4.112-1.708
		c1.08-1.087,1.672-2.527,1.662-4.052c-0.006-1.184-0.36-2.312-1.022-3.259l-2.887-3.57l14.126-21.831
		C452.117,261.283,451.881,260.177,451.053,259.641z M405.775,292.958L405.775,292.958c-0.589-0.005-1.14-0.237-1.553-0.653
		c-0.406-0.408-0.628-0.945-0.625-1.515c0.003-0.455,0.135-0.882,0.382-1.238l0.251-0.36l1.739-2.104l1.637,2.515
		c0.226,0.351,0.345,0.758,0.345,1.178C407.952,291.981,406.975,292.958,405.775,292.958z M437.794,290.791
		c0.004,0.568-0.219,1.106-0.624,1.514c-0.413,0.416-0.964,0.648-1.553,0.654v-0.001c-1.2,0-2.178-0.977-2.178-2.177
		c0-0.42,0.119-0.828,0.342-1.172l1.64-2.522l1.738,2.104l0.253,0.363C437.659,289.908,437.791,290.335,437.794,290.791z"/>
	<path fill="#60ADC9" d="M421.92,215.444l14.913,21.191l17.168-27.104c0.526-0.833,1.63-1.082,2.464-0.553
		c0.833,0.528,1.081,1.631,0.553,2.464l-18.76,29.618l-0.575,0.913c-0.153,0.242-0.423,0.402-0.729,0.402
		c-0.29,0-0.547-0.143-0.703-0.361l-0.63-0.894l-14.927-21.212l-15.246,21.672l-0.301,0.435c-0.157,0.219-0.413,0.362-0.703,0.362
		c-0.307,0-0.577-0.161-0.73-0.402l-0.296-0.467l-19.043-30.065c-0.528-0.833-0.28-1.937,0.553-2.464
		c0.836-0.528,1.937-0.279,2.464,0.553l17.167,27.104l14.854-21.115l0.567-0.803c0.155-0.229,0.418-0.381,0.716-0.381
		c0.295,0,0.556,0.148,0.712,0.374L421.92,215.444z"/>
	<path fill="#7A5680" d="M421.695,189.374l14.813,33.024l7.41-23.311c0.298-0.941,1.303-1.459,2.243-1.161
		c0.939,0.299,1.459,1.303,1.16,2.243l-9.46,29.76l-0.098,0.311c-0.11,0.35-0.438,0.604-0.824,0.604
		c-0.345,0-0.643-0.202-0.781-0.493l-0.154-0.348l-15.338-34.195l-15.177,33.847l-0.316,0.708c-0.139,0.292-0.436,0.494-0.781,0.494
		c-0.387,0-0.714-0.254-0.824-0.604l-0.185-0.596l-9.314-29.532c-0.296-0.941,0.226-1.944,1.167-2.24
		c0.938-0.296,1.944,0.225,2.241,1.166l7.358,23.333l14.82-33.047l0.216-0.48c0.133-0.306,0.438-0.52,0.792-0.52
		c0.358,0,0.665,0.218,0.796,0.528L421.695,189.374z"/>
	<path fill="#020202" d="M392.449,278.553h-1.99l-3.487,9.003h2.139l0.602-1.599h3.483l0.602,1.599h2.139L392.449,278.553z
		 M390.377,284.191l1.077-2.862l1.077,2.862H390.377z"/>
</g>
</svg>
