<?xml version="1.0" encoding="utf-8"?>
<!-- Generator: Adobe Illustrator 16.0.3, SVG Export Plug-In . SVG Version: 6.00 Build 0)  -->
<!DOCTYPE svg PUBLIC "-//W3C//DTD SVG 1.1//EN" "http://www.w3.org/Graphics/SVG/1.1/DTD/svg11.dtd">
<svg version="1.1" id="Layer_1" xmlns="http://www.w3.org/2000/svg" xmlns:xlink="http://www.w3.org/1999/xlink" x="0px" y="0px"
	 width="582.751px" height="502.987px" viewBox="0 0 582.751 502.987" enable-background="new 0 0 582.751 502.987"
	 xml:space="preserve">
<g>
	<g>
		<g display="none">
			<g display="inline">
				
					<path fill="none" stroke="#000000" stroke-width="7.8075" stroke-linecap="round" stroke-linejoin="round" stroke-miterlimit="10" d="
					M384.551,357.391c29.055,0,17.432,52.775,46.486,52.775c29.053,0,17.43-52.775,46.483-52.775
					c29.058,0,17.437,52.775,46.493,52.775c29.058,0,17.436-52.775,46.493-52.775"/>
				
					<polyline fill="none" stroke="#000000" stroke-width="7.983" stroke-linecap="round" stroke-linejoin="round" stroke-miterlimit="10" points="
					570.507,295.478 520.834,374.382 477.522,312.451 434.222,374.382 384.552,295.478 				"/>
				
					<path fill="none" stroke="#000000" stroke-width="8.1731" stroke-linecap="round" stroke-linejoin="round" stroke-miterlimit="10" d="
					M384.551,406.246c23.244,0-1.828,53.927,22.328,53.927c20.945,0,5.669-37.567,24.153-37.567
					c18.483,0,3.218,76.295,24.161,76.295c24.159,0-0.91-92.654,22.336-92.654c23.243,0-1.829,92.654,22.328,92.654
					c20.944,0,5.669-76.295,24.152-76.295s3.219,37.567,24.162,37.567c24.158,0-0.911-53.927,22.335-53.927"/>
			</g>
		</g>
		<g display="none">
			<g display="inline">
				
					<path fill="none" stroke="#000000" stroke-width="7.8075" stroke-linecap="round" stroke-linejoin="round" stroke-miterlimit="10" d="
					M198.567,357.391c29.055,0,17.432,52.775,46.485,52.775s17.431-52.775,46.484-52.775c29.057,0,17.436,52.775,46.493,52.775
					s17.436-52.775,46.493-52.775"/>
				
					<polyline fill="none" stroke="#000000" stroke-width="7.983" stroke-linecap="round" stroke-linejoin="round" stroke-miterlimit="10" points="
					384.522,295.478 334.85,374.382 291.538,312.451 248.238,374.382 198.567,295.478 				"/>
				
					<path fill="none" stroke="#000000" stroke-width="8.1731" stroke-linecap="round" stroke-linejoin="round" stroke-miterlimit="10" d="
					M198.567,406.246c23.243,0-1.828,53.927,22.327,53.927c20.946,0,5.67-37.567,24.153-37.567s3.219,76.295,24.162,76.295
					c24.158,0-0.911-92.654,22.335-92.654c23.244,0-1.828,92.654,22.328,92.654c20.945,0,5.669-76.295,24.152-76.295
					c18.484,0,3.219,37.567,24.162,37.567c24.159,0-0.91-53.927,22.336-53.927"/>
			</g>
		</g>
		<g display="none">
			<g display="inline">
				
					<path fill="none" stroke="#000000" stroke-width="7.8075" stroke-linecap="round" stroke-linejoin="round" stroke-miterlimit="10" d="
					M12.245,357.391c29.054,0,17.431,52.775,46.485,52.775c29.053,0,17.431-52.775,46.483-52.775
					c29.058,0,17.437,52.775,46.493,52.775c29.058,0,17.436-52.775,46.493-52.775"/>
				
					<polyline fill="none" stroke="#000000" stroke-width="7.983" stroke-linecap="round" stroke-linejoin="round" stroke-miterlimit="10" points="
					198.2,295.478 148.527,374.382 105.215,312.451 61.915,374.382 12.245,295.478 				"/>
				
					<path fill="none" stroke="#000000" stroke-width="8.1731" stroke-linecap="round" stroke-linejoin="round" stroke-miterlimit="10" d="
					M12.245,406.246c23.243,0-1.829,53.927,22.327,53.927c20.945,0,5.67-37.567,24.153-37.567S61.943,498.9,82.887,498.9
					c24.159,0-0.91-92.654,22.336-92.654c23.243,0-1.828,92.654,22.328,92.654c20.945,0,5.668-76.295,24.152-76.295
					s3.219,37.567,24.162,37.567c24.158,0-0.91-53.927,22.335-53.927"/>
			</g>
		</g>
		<g>
			<g>
				<g>
					
						<path fill="none" stroke="#000000" stroke-width="7.8075" stroke-linecap="round" stroke-linejoin="round" stroke-miterlimit="10" d="
						M384.551,65.905c29.055,0,17.432,52.775,46.486,52.775c29.053,0,17.43-52.775,46.483-52.775
						c29.058,0,17.437,52.775,46.493,52.775c29.058,0,17.436-52.775,46.493-52.775"/>
					
						<polyline fill="none" stroke="#000000" stroke-width="7.983" stroke-linecap="round" stroke-linejoin="round" stroke-miterlimit="10" points="
						570.507,3.992 520.834,82.896 477.522,20.967 434.222,82.896 384.552,3.992 					"/>
					
						<path fill="none" stroke="#000000" stroke-width="8.1731" stroke-linecap="round" stroke-linejoin="round" stroke-miterlimit="10" d="
						M384.551,114.761c23.244,0-1.828,53.927,22.328,53.927c20.945,0,5.669-37.566,24.153-37.566
						c18.483,0,3.218,76.294,24.161,76.294c24.159,0-0.91-92.654,22.336-92.654c23.243,0-1.829,92.654,22.328,92.654
						c20.944,0,5.669-76.294,24.152-76.294s3.219,37.566,24.162,37.566c24.158,0-0.911-53.927,22.335-53.927"/>
					
						<polyline fill="none" stroke="#000000" stroke-width="5.3052" stroke-linecap="round" stroke-linejoin="round" stroke-miterlimit="10" points="
						570.507,185.08 519.223,348.981 477.529,255.431 435.836,348.981 384.551,185.08 					"/>
				</g>
				
					<path fill="none" stroke="#000000" stroke-width="6.9115" stroke-linecap="round" stroke-linejoin="round" stroke-miterlimit="10" d="
					M570.507,270.908c4.854,0,8.788-3.981,8.788-8.894c0-2.135-0.742-4.094-1.981-5.627l-6.437-7.825l-32.269-39.291v0.002
					l-33.543,45.259l-2.33,3.151c-1.017,1.372-1.418,3.171-1.418,5.009c0,4.745,3.846,8.591,8.591,8.591
					c4.744,0,8.591-3.846,8.591-8.591c0-1.811-0.56-3.489-1.516-4.875l-0.63-0.91l-38.809-47.254l-38.811,47.254l-0.63,0.91
					c-0.956,1.386-1.516,3.064-1.516,4.875c0,4.745,3.847,8.591,8.591,8.591s8.591-3.846,8.591-8.591
					c0-1.838-0.456-3.616-1.473-4.989l-2.327-3.152l-33.521-45.276v-0.003l-32.268,39.291l-6.438,7.825
					c-1.238,1.533-1.981,3.492-1.981,5.627c0,4.912,3.935,8.894,8.788,8.894"/>
			</g>
			<g>
				<g>
					
						<path fill="none" stroke="#000000" stroke-width="7.8075" stroke-linecap="round" stroke-linejoin="round" stroke-miterlimit="10" d="
						M198.567,65.905c29.055,0,17.432,52.775,46.485,52.775s17.431-52.775,46.484-52.775c29.057,0,17.436,52.775,46.493,52.775
						s17.436-52.775,46.493-52.775"/>
					
						<polyline fill="none" stroke="#000000" stroke-width="7.983" stroke-linecap="round" stroke-linejoin="round" stroke-miterlimit="10" points="
						384.522,3.992 334.85,82.896 291.538,20.967 248.238,82.896 198.567,3.992 					"/>
					
						<path fill="none" stroke="#000000" stroke-width="8.1731" stroke-linecap="round" stroke-linejoin="round" stroke-miterlimit="10" d="
						M198.567,114.761c23.243,0-1.828,53.927,22.327,53.927c20.946,0,5.67-37.566,24.153-37.566s3.219,76.294,24.162,76.294
						c24.158,0-0.911-92.654,22.335-92.654c23.244,0-1.828,92.654,22.328,92.654c20.945,0,5.669-76.294,24.152-76.294
						c18.484,0,3.219,37.566,24.162,37.566c24.159,0-0.91-53.927,22.336-53.927"/>
					
						<polyline fill="none" stroke="#000000" stroke-width="5.3052" stroke-linecap="round" stroke-linejoin="round" stroke-miterlimit="10" points="
						384.523,185.08 333.238,348.981 291.545,255.431 249.852,348.981 198.567,185.08 					"/>
				</g>
				
					<path fill="none" stroke="#000000" stroke-width="6.9115" stroke-linecap="round" stroke-linejoin="round" stroke-miterlimit="10" d="
					M384.523,270.908c4.854,0,8.788-3.981,8.788-8.894c0-2.135-0.743-4.094-1.981-5.627l-6.437-7.825l-32.269-39.291v0.002
					l-33.544,45.259l-2.33,3.151c-1.017,1.372-1.418,3.171-1.418,5.009c0,4.745,3.847,8.591,8.591,8.591s8.591-3.846,8.591-8.591
					c0-1.811-0.56-3.489-1.516-4.875l-0.63-0.91l-38.809-47.254l-38.811,47.254l-0.629,0.91c-0.957,1.386-1.517,3.064-1.517,4.875
					c0,4.745,3.847,8.591,8.591,8.591c4.745,0,8.592-3.846,8.592-8.591c0-1.838-0.457-3.616-1.473-4.989l-2.328-3.152
					l-33.521-45.276v-0.003l-32.269,39.291l-6.437,7.825c-1.238,1.533-1.981,3.492-1.981,5.627c0,4.912,3.935,8.894,8.788,8.894"/>
			</g>
			<g>
				<g>
					
						<path fill="none" stroke="#000000" stroke-width="7.8075" stroke-linecap="round" stroke-linejoin="round" stroke-miterlimit="10" d="
						M12.245,65.905c29.054,0,17.431,52.775,46.485,52.775c29.053,0,17.431-52.775,46.483-52.775
						c29.058,0,17.437,52.775,46.493,52.775c29.058,0,17.436-52.775,46.493-52.775"/>
					
						<polyline fill="none" stroke="#000000" stroke-width="7.983" stroke-linecap="round" stroke-linejoin="round" stroke-miterlimit="10" points="
						198.2,3.992 148.527,82.896 105.215,20.967 61.915,82.896 12.245,3.992 					"/>
					
						<path fill="none" stroke="#000000" stroke-width="8.1731" stroke-linecap="round" stroke-linejoin="round" stroke-miterlimit="10" d="
						M12.245,114.761c23.243,0-1.829,53.927,22.327,53.927c20.945,0,5.67-37.566,24.153-37.566s3.218,76.294,24.161,76.294
						c24.159,0-0.91-92.654,22.336-92.654c23.243,0-1.828,92.654,22.328,92.654c20.945,0,5.668-76.294,24.152-76.294
						s3.219,37.566,24.162,37.566c24.158,0-0.91-53.927,22.335-53.927"/>
					
						<polyline fill="none" stroke="#000000" stroke-width="5.3052" stroke-linecap="round" stroke-linejoin="round" stroke-miterlimit="10" points="
						198.2,185.08 146.916,348.981 105.223,255.431 63.529,348.981 12.245,185.08 					"/>
				</g>
				
					<path fill="none" stroke="#000000" stroke-width="6.9115" stroke-linecap="round" stroke-linejoin="round" stroke-miterlimit="10" d="
					M198.2,270.908c4.854,0,8.789-3.981,8.789-8.894c0-2.135-0.743-4.094-1.982-5.627l-6.437-7.825l-32.269-39.291v0.002
					l-33.543,45.259l-2.33,3.151c-1.017,1.372-1.419,3.171-1.419,5.009c0,4.745,3.847,8.591,8.592,8.591
					c4.744,0,8.591-3.846,8.591-8.591c0-1.811-0.56-3.489-1.516-4.875l-0.63-0.91l-38.809-47.254l-38.811,47.254l-0.63,0.91
					c-0.956,1.386-1.516,3.064-1.516,4.875c0,4.745,3.847,8.591,8.591,8.591s8.591-3.846,8.591-8.591
					c0-1.838-0.456-3.616-1.472-4.989l-2.328-3.152l-33.521-45.276v-0.003l-32.268,39.291l-6.437,7.825
					c-1.239,1.533-1.982,3.492-1.982,5.627c0,4.912,3.935,8.894,8.789,8.894"/>
			</g>
		</g>
	</g>
</g>
</svg>
